%TF.GenerationSoftware,KiCad,Pcbnew,8.0.4*%
%TF.CreationDate,2024-09-14T11:06:21+09:00*%
%TF.ProjectId,power_supply,706f7765-725f-4737-9570-706c792e6b69,rev?*%
%TF.SameCoordinates,Original*%
%TF.FileFunction,Soldermask,Top*%
%TF.FilePolarity,Negative*%
%FSLAX46Y46*%
G04 Gerber Fmt 4.6, Leading zero omitted, Abs format (unit mm)*
G04 Created by KiCad (PCBNEW 8.0.4) date 2024-09-14 11:06:21*
%MOMM*%
%LPD*%
G01*
G04 APERTURE LIST*
G04 Aperture macros list*
%AMRoundRect*
0 Rectangle with rounded corners*
0 $1 Rounding radius*
0 $2 $3 $4 $5 $6 $7 $8 $9 X,Y pos of 4 corners*
0 Add a 4 corners polygon primitive as box body*
4,1,4,$2,$3,$4,$5,$6,$7,$8,$9,$2,$3,0*
0 Add four circle primitives for the rounded corners*
1,1,$1+$1,$2,$3*
1,1,$1+$1,$4,$5*
1,1,$1+$1,$6,$7*
1,1,$1+$1,$8,$9*
0 Add four rect primitives between the rounded corners*
20,1,$1+$1,$2,$3,$4,$5,0*
20,1,$1+$1,$4,$5,$6,$7,0*
20,1,$1+$1,$6,$7,$8,$9,0*
20,1,$1+$1,$8,$9,$2,$3,0*%
G04 Aperture macros list end*
%ADD10RoundRect,1.500000X-1.500000X1.500000X-1.500000X-1.500000X1.500000X-1.500000X1.500000X1.500000X0*%
%ADD11C,6.000000*%
%ADD12RoundRect,0.250000X0.750000X-0.600000X0.750000X0.600000X-0.750000X0.600000X-0.750000X-0.600000X0*%
%ADD13O,2.000000X1.700000*%
%ADD14C,7.000000*%
%ADD15C,4.000000*%
%ADD16R,1.700000X1.700000*%
%ADD17O,1.700000X1.700000*%
%ADD18C,1.600000*%
%ADD19O,1.600000X1.600000*%
%ADD20R,2.108200X2.108200*%
%ADD21C,2.108200*%
G04 APERTURE END LIST*
D10*
%TO.C,J22*%
X46033156Y-33179045D03*
D11*
X46033156Y-40379045D03*
%TD*%
D12*
%TO.C,J8*%
X54000000Y-68000000D03*
D13*
X54000000Y-65500000D03*
%TD*%
D14*
%TO.C,REF\u002A\u002A*%
X107000000Y-17000000D03*
%TD*%
%TO.C,REF\u002A\u002A*%
X107000000Y-107000000D03*
%TD*%
D11*
%TO.C,J21*%
X20000000Y-61700000D03*
D10*
X20000000Y-54500000D03*
%TD*%
D12*
%TO.C,J6*%
X32000000Y-68000000D03*
D13*
X32000000Y-65500000D03*
%TD*%
D10*
%TO.C,J1*%
X60500000Y-33300000D03*
D11*
X60500000Y-40500000D03*
%TD*%
D12*
%TO.C,J7*%
X43000000Y-68000000D03*
D13*
X43000000Y-65500000D03*
%TD*%
%TO.C,J18*%
X87000000Y-78500000D03*
D12*
X87000000Y-81000000D03*
%TD*%
D14*
%TO.C,REF\u002A\u002A*%
X17000000Y-17000000D03*
%TD*%
D15*
%TO.C,U4*%
X30000000Y-95000000D03*
X30000000Y-99700000D03*
X30000000Y-104400000D03*
%TD*%
D16*
%TO.C,U1*%
X18000000Y-81460000D03*
D17*
X18000000Y-84000000D03*
X18000000Y-86540000D03*
%TD*%
D13*
%TO.C,J15*%
X54000000Y-78500000D03*
D12*
X54000000Y-81000000D03*
%TD*%
D13*
%TO.C,J19*%
X98000000Y-78500000D03*
D12*
X98000000Y-81000000D03*
%TD*%
D18*
%TO.C,R1*%
X50340000Y-94500000D03*
D19*
X60500000Y-94500000D03*
%TD*%
D13*
%TO.C,J16*%
X65000000Y-78500000D03*
D12*
X65000000Y-81000000D03*
%TD*%
%TO.C,J20*%
X109000000Y-81000000D03*
D13*
X109000000Y-78500000D03*
%TD*%
D10*
%TO.C,J3*%
X74500000Y-33300000D03*
D11*
X74500000Y-40500000D03*
%TD*%
D12*
%TO.C,J10*%
X76000000Y-68000000D03*
D13*
X76000000Y-65500000D03*
%TD*%
%TO.C,J17*%
X76000000Y-78500000D03*
D12*
X76000000Y-81000000D03*
%TD*%
D13*
%TO.C,J2*%
X32000000Y-78500000D03*
D12*
X32000000Y-81000000D03*
%TD*%
D16*
%TO.C,U5*%
X52500000Y-104500000D03*
D17*
X55040000Y-104500000D03*
X57580000Y-104500000D03*
%TD*%
D12*
%TO.C,J9*%
X65000000Y-68000000D03*
D13*
X65000000Y-65500000D03*
%TD*%
D10*
%TO.C,J4*%
X88000000Y-33300000D03*
D11*
X88000000Y-40500000D03*
%TD*%
D10*
%TO.C,J5*%
X101500000Y-33300000D03*
D11*
X101500000Y-40500000D03*
%TD*%
D20*
%TO.C,U3*%
X23033156Y-44179045D03*
D21*
X26436756Y-44179045D03*
X26436756Y-30717045D03*
X23033156Y-30717045D03*
%TD*%
D14*
%TO.C,REF\u002A\u002A*%
X17000000Y-107000000D03*
%TD*%
D13*
%TO.C,J13*%
X109000000Y-65500000D03*
D12*
X109000000Y-68000000D03*
%TD*%
D13*
%TO.C,J14*%
X43000000Y-78500000D03*
D12*
X43000000Y-81000000D03*
%TD*%
%TO.C,J12*%
X98000000Y-68000000D03*
D13*
X98000000Y-65500000D03*
%TD*%
D16*
%TO.C,C1*%
X15000000Y-35500000D03*
D17*
X15000000Y-38040000D03*
%TD*%
D12*
%TO.C,J11*%
X87000000Y-68000000D03*
D13*
X87000000Y-65500000D03*
%TD*%
M02*
