%TF.GenerationSoftware,KiCad,Pcbnew,8.0.4*%
%TF.CreationDate,2024-09-14T11:06:21+09:00*%
%TF.ProjectId,power_supply,706f7765-725f-4737-9570-706c792e6b69,rev?*%
%TF.SameCoordinates,Original*%
%TF.FileFunction,Copper,L1,Top*%
%TF.FilePolarity,Positive*%
%FSLAX46Y46*%
G04 Gerber Fmt 4.6, Leading zero omitted, Abs format (unit mm)*
G04 Created by KiCad (PCBNEW 8.0.4) date 2024-09-14 11:06:21*
%MOMM*%
%LPD*%
G01*
G04 APERTURE LIST*
G04 Aperture macros list*
%AMRoundRect*
0 Rectangle with rounded corners*
0 $1 Rounding radius*
0 $2 $3 $4 $5 $6 $7 $8 $9 X,Y pos of 4 corners*
0 Add a 4 corners polygon primitive as box body*
4,1,4,$2,$3,$4,$5,$6,$7,$8,$9,$2,$3,0*
0 Add four circle primitives for the rounded corners*
1,1,$1+$1,$2,$3*
1,1,$1+$1,$4,$5*
1,1,$1+$1,$6,$7*
1,1,$1+$1,$8,$9*
0 Add four rect primitives between the rounded corners*
20,1,$1+$1,$2,$3,$4,$5,0*
20,1,$1+$1,$4,$5,$6,$7,0*
20,1,$1+$1,$6,$7,$8,$9,0*
20,1,$1+$1,$8,$9,$2,$3,0*%
G04 Aperture macros list end*
%TA.AperFunction,ComponentPad*%
%ADD10RoundRect,1.500000X-1.500000X1.500000X-1.500000X-1.500000X1.500000X-1.500000X1.500000X1.500000X0*%
%TD*%
%TA.AperFunction,ComponentPad*%
%ADD11C,6.000000*%
%TD*%
%TA.AperFunction,ComponentPad*%
%ADD12RoundRect,0.250000X0.750000X-0.600000X0.750000X0.600000X-0.750000X0.600000X-0.750000X-0.600000X0*%
%TD*%
%TA.AperFunction,ComponentPad*%
%ADD13O,2.000000X1.700000*%
%TD*%
%TA.AperFunction,ComponentPad*%
%ADD14C,7.000000*%
%TD*%
%TA.AperFunction,ComponentPad*%
%ADD15C,4.000000*%
%TD*%
%TA.AperFunction,ComponentPad*%
%ADD16R,1.700000X1.700000*%
%TD*%
%TA.AperFunction,ComponentPad*%
%ADD17O,1.700000X1.700000*%
%TD*%
%TA.AperFunction,ComponentPad*%
%ADD18C,1.600000*%
%TD*%
%TA.AperFunction,ComponentPad*%
%ADD19O,1.600000X1.600000*%
%TD*%
%TA.AperFunction,ComponentPad*%
%ADD20R,2.108200X2.108200*%
%TD*%
%TA.AperFunction,ComponentPad*%
%ADD21C,2.108200*%
%TD*%
%TA.AperFunction,Conductor*%
%ADD22C,1.000000*%
%TD*%
G04 APERTURE END LIST*
D10*
%TO.P,J22,1,GND*%
%TO.N,+12V_2*%
X46033156Y-33179045D03*
D11*
%TO.P,J22,2,VCC*%
%TO.N,Net-(J1-Pin_1)*%
X46033156Y-40379045D03*
%TD*%
D12*
%TO.P,J8,1,Pin_1*%
%TO.N,Net-(J1-Pin_1)*%
X54000000Y-68000000D03*
D13*
%TO.P,J8,2,Pin_2*%
%TO.N,GND*%
X54000000Y-65500000D03*
%TD*%
D14*
%TO.P,REF\u002A\u002A,1*%
%TO.N,N/C*%
X107000000Y-17000000D03*
%TD*%
%TO.P,REF\u002A\u002A,1*%
%TO.N,N/C*%
X107000000Y-107000000D03*
%TD*%
D11*
%TO.P,J21,2,VCC*%
%TO.N,GND*%
X20000000Y-61700000D03*
D10*
%TO.P,J21,1,GND*%
%TO.N,+12V_1*%
X20000000Y-54500000D03*
%TD*%
D12*
%TO.P,J6,1,Pin_1*%
%TO.N,Net-(J1-Pin_1)*%
X32000000Y-68000000D03*
D13*
%TO.P,J6,2,Pin_2*%
%TO.N,GND*%
X32000000Y-65500000D03*
%TD*%
D10*
%TO.P,J1,1,Pin_1*%
%TO.N,Net-(J1-Pin_1)*%
X60500000Y-33300000D03*
D11*
%TO.P,J1,2,Pin_2*%
%TO.N,GND*%
X60500000Y-40500000D03*
%TD*%
D12*
%TO.P,J7,1,Pin_1*%
%TO.N,Net-(J1-Pin_1)*%
X43000000Y-68000000D03*
D13*
%TO.P,J7,2,Pin_2*%
%TO.N,GND*%
X43000000Y-65500000D03*
%TD*%
%TO.P,J18,2,Pin_2*%
%TO.N,GND*%
X87000000Y-78500000D03*
D12*
%TO.P,J18,1,Pin_1*%
%TO.N,Net-(J14-Pin_1)*%
X87000000Y-81000000D03*
%TD*%
D14*
%TO.P,REF\u002A\u002A,1*%
%TO.N,N/C*%
X17000000Y-17000000D03*
%TD*%
D15*
%TO.P,U4,1,1*%
%TO.N,Net-(J14-Pin_1)*%
X30000000Y-95000000D03*
%TO.P,U4,2,2*%
%TO.N,Net-(U5-OUT)*%
X30000000Y-99700000D03*
%TO.P,U4,3,3*%
%TO.N,Net-(J1-Pin_1)*%
X30000000Y-104400000D03*
%TD*%
D16*
%TO.P,U1,1,VIN*%
%TO.N,Net-(J1-Pin_1)*%
X18000000Y-81460000D03*
D17*
%TO.P,U1,2,GND*%
%TO.N,GND*%
X18000000Y-84000000D03*
%TO.P,U1,3,VOUT*%
%TO.N,Net-(J14-Pin_1)*%
X18000000Y-86540000D03*
%TD*%
D13*
%TO.P,J15,2,Pin_2*%
%TO.N,GND*%
X54000000Y-78500000D03*
D12*
%TO.P,J15,1,Pin_1*%
%TO.N,Net-(J14-Pin_1)*%
X54000000Y-81000000D03*
%TD*%
D13*
%TO.P,J19,2,Pin_2*%
%TO.N,GND*%
X98000000Y-78500000D03*
D12*
%TO.P,J19,1,Pin_1*%
%TO.N,Net-(J14-Pin_1)*%
X98000000Y-81000000D03*
%TD*%
D18*
%TO.P,R1,1*%
%TO.N,Net-(R1-Pad1)*%
X50340000Y-94500000D03*
D19*
%TO.P,R1,2*%
%TO.N,Net-(U5-OUT)*%
X60500000Y-94500000D03*
%TD*%
D13*
%TO.P,J16,2,Pin_2*%
%TO.N,GND*%
X65000000Y-78500000D03*
D12*
%TO.P,J16,1,Pin_1*%
%TO.N,Net-(J14-Pin_1)*%
X65000000Y-81000000D03*
%TD*%
%TO.P,J20,1,Pin_1*%
%TO.N,Net-(J14-Pin_1)*%
X109000000Y-81000000D03*
D13*
%TO.P,J20,2,Pin_2*%
%TO.N,GND*%
X109000000Y-78500000D03*
%TD*%
D10*
%TO.P,J3,1,Pin_1*%
%TO.N,Net-(J1-Pin_1)*%
X74500000Y-33300000D03*
D11*
%TO.P,J3,2,Pin_2*%
%TO.N,GND*%
X74500000Y-40500000D03*
%TD*%
D12*
%TO.P,J10,1,Pin_1*%
%TO.N,Net-(J1-Pin_1)*%
X76000000Y-68000000D03*
D13*
%TO.P,J10,2,Pin_2*%
%TO.N,GND*%
X76000000Y-65500000D03*
%TD*%
%TO.P,J17,2,Pin_2*%
%TO.N,GND*%
X76000000Y-78500000D03*
D12*
%TO.P,J17,1,Pin_1*%
%TO.N,Net-(J14-Pin_1)*%
X76000000Y-81000000D03*
%TD*%
D13*
%TO.P,J2,2,Pin_2*%
%TO.N,GND*%
X32000000Y-78500000D03*
D12*
%TO.P,J2,1,Pin_1*%
%TO.N,Net-(J14-Pin_1)*%
X32000000Y-81000000D03*
%TD*%
D16*
%TO.P,U5,1,GND*%
%TO.N,GND*%
X52500000Y-104500000D03*
D17*
%TO.P,U5,2,2*%
%TO.N,Net-(R1-Pad1)*%
X55040000Y-104500000D03*
%TO.P,U5,3,OUT*%
%TO.N,Net-(U5-OUT)*%
X57580000Y-104500000D03*
%TD*%
D12*
%TO.P,J9,1,Pin_1*%
%TO.N,Net-(J1-Pin_1)*%
X65000000Y-68000000D03*
D13*
%TO.P,J9,2,Pin_2*%
%TO.N,GND*%
X65000000Y-65500000D03*
%TD*%
D10*
%TO.P,J4,1,Pin_1*%
%TO.N,Net-(J1-Pin_1)*%
X88000000Y-33300000D03*
D11*
%TO.P,J4,2,Pin_2*%
%TO.N,GND*%
X88000000Y-40500000D03*
%TD*%
D10*
%TO.P,J5,1,Pin_1*%
%TO.N,Net-(J1-Pin_1)*%
X101500000Y-33300000D03*
D11*
%TO.P,J5,2,Pin_2*%
%TO.N,GND*%
X101500000Y-40500000D03*
%TD*%
D20*
%TO.P,U3,1,1*%
%TO.N,+12V_1*%
X23033156Y-44179045D03*
D21*
%TO.P,U3,2,2*%
X26436756Y-44179045D03*
%TO.P,U3,3,3*%
%TO.N,+12V_2*%
X26436756Y-30717045D03*
%TO.P,U3,4,4*%
X23033156Y-30717045D03*
%TD*%
D14*
%TO.P,REF\u002A\u002A,1*%
%TO.N,N/C*%
X17000000Y-107000000D03*
%TD*%
D13*
%TO.P,J13,2,Pin_2*%
%TO.N,GND*%
X109000000Y-65500000D03*
D12*
%TO.P,J13,1,Pin_1*%
%TO.N,Net-(J1-Pin_1)*%
X109000000Y-68000000D03*
%TD*%
D13*
%TO.P,J14,2,Pin_2*%
%TO.N,GND*%
X43000000Y-78500000D03*
D12*
%TO.P,J14,1,Pin_1*%
%TO.N,Net-(J14-Pin_1)*%
X43000000Y-81000000D03*
%TD*%
%TO.P,J12,1,Pin_1*%
%TO.N,Net-(J1-Pin_1)*%
X98000000Y-68000000D03*
D13*
%TO.P,J12,2,Pin_2*%
%TO.N,GND*%
X98000000Y-65500000D03*
%TD*%
D16*
%TO.P,C1,1*%
%TO.N,GND*%
X15000000Y-35500000D03*
D17*
%TO.P,C1,2*%
%TO.N,+12V_1*%
X15000000Y-38040000D03*
%TD*%
D12*
%TO.P,J11,1,Pin_1*%
%TO.N,Net-(J1-Pin_1)*%
X87000000Y-68000000D03*
D13*
%TO.P,J11,2,Pin_2*%
%TO.N,GND*%
X87000000Y-65500000D03*
%TD*%
D22*
%TO.N,Net-(J14-Pin_1)*%
X27080000Y-81000000D02*
X21540000Y-86540000D01*
X32000000Y-81000000D02*
X27080000Y-81000000D01*
X21540000Y-86540000D02*
X30000000Y-95000000D01*
X18000000Y-86540000D02*
X21540000Y-86540000D01*
X98000000Y-81000000D02*
X109000000Y-81000000D01*
X87000000Y-81000000D02*
X98000000Y-81000000D01*
X76000000Y-81000000D02*
X87000000Y-81000000D01*
X65000000Y-81000000D02*
X76000000Y-81000000D01*
X54000000Y-81000000D02*
X65000000Y-81000000D01*
X43000000Y-81000000D02*
X54000000Y-81000000D01*
X32000000Y-81000000D02*
X43000000Y-81000000D01*
%TO.N,Net-(R1-Pad1)*%
X55040000Y-99200000D02*
X55040000Y-104500000D01*
X50340000Y-94500000D02*
X55040000Y-99200000D01*
%TO.N,Net-(U5-OUT)*%
X60500000Y-101580000D02*
X57580000Y-104500000D01*
X60500000Y-94500000D02*
X60500000Y-101580000D01*
X36350000Y-106050000D02*
X56030000Y-106050000D01*
X30000000Y-99700000D02*
X36350000Y-106050000D01*
X56030000Y-106050000D02*
X57580000Y-104500000D01*
%TD*%
%TA.AperFunction,Conductor*%
%TO.N,+12V_2*%
G36*
X53476195Y-27698730D02*
G01*
X53521950Y-27751534D01*
X53533156Y-27803045D01*
X53533156Y-36553261D01*
X53513471Y-36620300D01*
X53460667Y-36666055D01*
X53407385Y-36677248D01*
X48655276Y-36609360D01*
X48588524Y-36588720D01*
X48543528Y-36535268D01*
X48534574Y-36465975D01*
X48564504Y-36402840D01*
X48597624Y-36376539D01*
X48617194Y-36365853D01*
X48617195Y-36365852D01*
X48846221Y-36194405D01*
X48846233Y-36194395D01*
X49048506Y-35992122D01*
X49048516Y-35992110D01*
X49219963Y-35763084D01*
X49219964Y-35763083D01*
X49357064Y-35512003D01*
X49457046Y-35243940D01*
X49517855Y-34964407D01*
X49533155Y-34750481D01*
X49533156Y-34750479D01*
X49533156Y-33429045D01*
X48269658Y-33429045D01*
X48283156Y-33326518D01*
X48283156Y-33031572D01*
X48269658Y-32929045D01*
X49533156Y-32929045D01*
X49533156Y-31607611D01*
X49533155Y-31607608D01*
X49517855Y-31393682D01*
X49457046Y-31114149D01*
X49357064Y-30846086D01*
X49219964Y-30595006D01*
X49219963Y-30595005D01*
X49048516Y-30365979D01*
X49048506Y-30365967D01*
X48846233Y-30163694D01*
X48846221Y-30163684D01*
X48617195Y-29992237D01*
X48617194Y-29992236D01*
X48366113Y-29855136D01*
X48366114Y-29855136D01*
X48098051Y-29755154D01*
X47818518Y-29694345D01*
X47604592Y-29679045D01*
X46283156Y-29679045D01*
X46283156Y-30942542D01*
X46180629Y-30929045D01*
X45885683Y-30929045D01*
X45783156Y-30942542D01*
X45783156Y-29679045D01*
X44461719Y-29679045D01*
X44247793Y-29694345D01*
X43968260Y-29755154D01*
X43700197Y-29855136D01*
X43449117Y-29992236D01*
X43449116Y-29992237D01*
X43220090Y-30163684D01*
X43220078Y-30163694D01*
X43017805Y-30365967D01*
X43017795Y-30365979D01*
X42846348Y-30595005D01*
X42846347Y-30595006D01*
X42709247Y-30846086D01*
X42609265Y-31114149D01*
X42548456Y-31393682D01*
X42533156Y-31607608D01*
X42533156Y-32929045D01*
X43796654Y-32929045D01*
X43783156Y-33031572D01*
X43783156Y-33326518D01*
X43796654Y-33429045D01*
X42533156Y-33429045D01*
X42533156Y-34750481D01*
X42548456Y-34964407D01*
X42609265Y-35243940D01*
X42709247Y-35512003D01*
X42846347Y-35763083D01*
X42846348Y-35763084D01*
X43017795Y-35992110D01*
X43017805Y-35992122D01*
X43220078Y-36194395D01*
X43220096Y-36194411D01*
X43373932Y-36309571D01*
X43415804Y-36365504D01*
X43420788Y-36435196D01*
X43387303Y-36496519D01*
X43325980Y-36530004D01*
X43297851Y-36532825D01*
X18655385Y-36180791D01*
X18588633Y-36160151D01*
X18543637Y-36106699D01*
X18533156Y-36056804D01*
X18533156Y-30717045D01*
X21474250Y-30717045D01*
X21493443Y-30960915D01*
X21550545Y-31198763D01*
X21550549Y-31198775D01*
X21644160Y-31424774D01*
X21768679Y-31627968D01*
X22317233Y-31079414D01*
X22324117Y-31096034D01*
X22411678Y-31227079D01*
X22523122Y-31338523D01*
X22654167Y-31426084D01*
X22670785Y-31432967D01*
X22122231Y-31981520D01*
X22122231Y-31981521D01*
X22325426Y-32106040D01*
X22551425Y-32199651D01*
X22551437Y-32199655D01*
X22789285Y-32256757D01*
X23033156Y-32275950D01*
X23277026Y-32256757D01*
X23514874Y-32199655D01*
X23514886Y-32199651D01*
X23740885Y-32106040D01*
X23944078Y-31981521D01*
X23944079Y-31981520D01*
X23395526Y-31432967D01*
X23412145Y-31426084D01*
X23543190Y-31338523D01*
X23654634Y-31227079D01*
X23742195Y-31096034D01*
X23749078Y-31079415D01*
X24297631Y-31627968D01*
X24297632Y-31627967D01*
X24422151Y-31424774D01*
X24515762Y-31198775D01*
X24515766Y-31198763D01*
X24572868Y-30960915D01*
X24592061Y-30717045D01*
X24877850Y-30717045D01*
X24897043Y-30960915D01*
X24954145Y-31198763D01*
X24954149Y-31198775D01*
X25047760Y-31424774D01*
X25172279Y-31627968D01*
X25720833Y-31079414D01*
X25727717Y-31096034D01*
X25815278Y-31227079D01*
X25926722Y-31338523D01*
X26057767Y-31426084D01*
X26074385Y-31432967D01*
X25525831Y-31981520D01*
X25525831Y-31981521D01*
X25729026Y-32106040D01*
X25955025Y-32199651D01*
X25955037Y-32199655D01*
X26192885Y-32256757D01*
X26436756Y-32275950D01*
X26680626Y-32256757D01*
X26918474Y-32199655D01*
X26918486Y-32199651D01*
X27144485Y-32106040D01*
X27347678Y-31981521D01*
X27347679Y-31981520D01*
X26799126Y-31432967D01*
X26815745Y-31426084D01*
X26946790Y-31338523D01*
X27058234Y-31227079D01*
X27145795Y-31096034D01*
X27152678Y-31079415D01*
X27701231Y-31627968D01*
X27701232Y-31627967D01*
X27825751Y-31424774D01*
X27919362Y-31198775D01*
X27919366Y-31198763D01*
X27976468Y-30960915D01*
X27995661Y-30717045D01*
X27976468Y-30473174D01*
X27919366Y-30235326D01*
X27919362Y-30235314D01*
X27825751Y-30009315D01*
X27701231Y-29806120D01*
X27152678Y-30354673D01*
X27145795Y-30338056D01*
X27058234Y-30207011D01*
X26946790Y-30095567D01*
X26815745Y-30008006D01*
X26799125Y-30001122D01*
X27347679Y-29452568D01*
X27144485Y-29328049D01*
X26918486Y-29234438D01*
X26918474Y-29234434D01*
X26680626Y-29177332D01*
X26436756Y-29158139D01*
X26192885Y-29177332D01*
X25955037Y-29234434D01*
X25955025Y-29234438D01*
X25729026Y-29328049D01*
X25525831Y-29452568D01*
X26074385Y-30001122D01*
X26057767Y-30008006D01*
X25926722Y-30095567D01*
X25815278Y-30207011D01*
X25727717Y-30338056D01*
X25720833Y-30354674D01*
X25172279Y-29806120D01*
X25047760Y-30009315D01*
X24954149Y-30235314D01*
X24954145Y-30235326D01*
X24897043Y-30473174D01*
X24877850Y-30717045D01*
X24592061Y-30717045D01*
X24572868Y-30473174D01*
X24515766Y-30235326D01*
X24515762Y-30235314D01*
X24422151Y-30009315D01*
X24297631Y-29806120D01*
X23749078Y-30354673D01*
X23742195Y-30338056D01*
X23654634Y-30207011D01*
X23543190Y-30095567D01*
X23412145Y-30008006D01*
X23395525Y-30001122D01*
X23944079Y-29452568D01*
X23740885Y-29328049D01*
X23514886Y-29234438D01*
X23514874Y-29234434D01*
X23277026Y-29177332D01*
X23033156Y-29158139D01*
X22789285Y-29177332D01*
X22551437Y-29234434D01*
X22551425Y-29234438D01*
X22325426Y-29328049D01*
X22122231Y-29452568D01*
X22670785Y-30001122D01*
X22654167Y-30008006D01*
X22523122Y-30095567D01*
X22411678Y-30207011D01*
X22324117Y-30338056D01*
X22317233Y-30354674D01*
X21768679Y-29806120D01*
X21644160Y-30009315D01*
X21550549Y-30235314D01*
X21550545Y-30235326D01*
X21493443Y-30473174D01*
X21474250Y-30717045D01*
X18533156Y-30717045D01*
X18533156Y-27803045D01*
X18552841Y-27736006D01*
X18605645Y-27690251D01*
X18657156Y-27679045D01*
X53409156Y-27679045D01*
X53476195Y-27698730D01*
G37*
%TD.AperFunction*%
%TD*%
%TA.AperFunction,Conductor*%
%TO.N,Net-(J1-Pin_1)*%
G36*
X111442539Y-12520185D02*
G01*
X111488294Y-12572989D01*
X111499500Y-12624500D01*
X111499500Y-111375500D01*
X111479815Y-111442539D01*
X111427011Y-111488294D01*
X111375500Y-111499500D01*
X12624500Y-111499500D01*
X12557461Y-111479815D01*
X12511706Y-111427011D01*
X12500500Y-111375500D01*
X12500500Y-107000000D01*
X12994675Y-107000000D01*
X13013962Y-107392591D01*
X13013962Y-107392597D01*
X13013963Y-107392599D01*
X13071637Y-107781406D01*
X13167143Y-108162684D01*
X13299561Y-108532770D01*
X13299562Y-108532772D01*
X13467620Y-108888100D01*
X13669692Y-109225236D01*
X13903846Y-109540956D01*
X14167807Y-109832192D01*
X14459043Y-110096153D01*
X14459049Y-110096158D01*
X14774761Y-110330306D01*
X14774763Y-110330307D01*
X15111899Y-110532379D01*
X15111902Y-110532380D01*
X15111903Y-110532381D01*
X15467228Y-110700438D01*
X15837316Y-110832857D01*
X16218600Y-110928364D01*
X16607409Y-110986038D01*
X17000000Y-111005325D01*
X17392591Y-110986038D01*
X17781400Y-110928364D01*
X18162684Y-110832857D01*
X18532772Y-110700438D01*
X18888097Y-110532381D01*
X19225239Y-110330306D01*
X19540951Y-110096158D01*
X19832192Y-109832192D01*
X20096158Y-109540951D01*
X20330306Y-109225239D01*
X20532381Y-108888097D01*
X20700438Y-108532772D01*
X20832857Y-108162684D01*
X20928364Y-107781400D01*
X20986038Y-107392591D01*
X21005325Y-107000000D01*
X20986038Y-106607409D01*
X20928364Y-106218600D01*
X20832857Y-105837316D01*
X20700438Y-105467228D01*
X20532381Y-105111903D01*
X20488261Y-105038294D01*
X20330307Y-104774763D01*
X20314577Y-104753553D01*
X20096158Y-104459049D01*
X20042644Y-104400005D01*
X19832192Y-104167807D01*
X19540956Y-103903846D01*
X19488547Y-103864977D01*
X19225239Y-103669694D01*
X19225236Y-103669692D01*
X18888100Y-103467620D01*
X18532772Y-103299562D01*
X18532770Y-103299561D01*
X18162684Y-103167143D01*
X17781406Y-103071637D01*
X17781401Y-103071636D01*
X17781400Y-103071636D01*
X17637256Y-103050254D01*
X17392599Y-103013963D01*
X17392597Y-103013962D01*
X17392591Y-103013962D01*
X17000000Y-102994675D01*
X16607409Y-103013962D01*
X16607403Y-103013962D01*
X16607400Y-103013963D01*
X16218593Y-103071637D01*
X15837315Y-103167143D01*
X15467229Y-103299561D01*
X15467227Y-103299562D01*
X15111899Y-103467620D01*
X14774763Y-103669692D01*
X14459043Y-103903846D01*
X14167807Y-104167807D01*
X13903846Y-104459043D01*
X13669692Y-104774763D01*
X13467620Y-105111899D01*
X13299562Y-105467227D01*
X13299561Y-105467229D01*
X13167143Y-105837315D01*
X13071637Y-106218593D01*
X13027672Y-106514985D01*
X13013962Y-106607409D01*
X12994675Y-107000000D01*
X12500500Y-107000000D01*
X12500500Y-83999999D01*
X16644341Y-83999999D01*
X16644341Y-84000000D01*
X16664936Y-84235403D01*
X16664938Y-84235413D01*
X16726094Y-84463655D01*
X16726096Y-84463659D01*
X16726097Y-84463663D01*
X16825965Y-84677830D01*
X16825967Y-84677834D01*
X16961501Y-84871395D01*
X16961506Y-84871402D01*
X17128597Y-85038493D01*
X17128603Y-85038498D01*
X17314158Y-85168425D01*
X17357783Y-85223002D01*
X17364977Y-85292500D01*
X17333454Y-85354855D01*
X17314158Y-85371575D01*
X17128597Y-85501505D01*
X16961505Y-85668597D01*
X16825965Y-85862169D01*
X16825964Y-85862171D01*
X16726098Y-86076335D01*
X16726094Y-86076344D01*
X16664938Y-86304586D01*
X16664936Y-86304596D01*
X16644341Y-86539999D01*
X16644341Y-86540000D01*
X16664936Y-86775403D01*
X16664938Y-86775413D01*
X16726094Y-87003655D01*
X16726096Y-87003659D01*
X16726097Y-87003663D01*
X16825965Y-87217830D01*
X16825967Y-87217834D01*
X16934281Y-87372521D01*
X16961505Y-87411401D01*
X17128599Y-87578495D01*
X17225384Y-87646265D01*
X17322165Y-87714032D01*
X17322167Y-87714033D01*
X17322170Y-87714035D01*
X17536337Y-87813903D01*
X17764592Y-87875063D01*
X17952918Y-87891539D01*
X17999999Y-87895659D01*
X18000000Y-87895659D01*
X18000001Y-87895659D01*
X18039234Y-87892226D01*
X18235408Y-87875063D01*
X18463663Y-87813903D01*
X18677830Y-87714035D01*
X18871401Y-87578495D01*
X18873077Y-87576819D01*
X18873995Y-87576317D01*
X18875544Y-87575018D01*
X18875805Y-87575329D01*
X18934400Y-87543334D01*
X18960758Y-87540500D01*
X21074218Y-87540500D01*
X21141257Y-87560185D01*
X21161899Y-87576819D01*
X27614868Y-94029789D01*
X27648353Y-94091112D01*
X27645118Y-94155787D01*
X27573271Y-94376913D01*
X27573270Y-94376917D01*
X27573269Y-94376921D01*
X27549790Y-94500001D01*
X27514311Y-94685988D01*
X27514310Y-94685995D01*
X27494556Y-94999994D01*
X27494556Y-95000005D01*
X27514310Y-95314004D01*
X27514311Y-95314011D01*
X27573270Y-95623083D01*
X27670497Y-95922316D01*
X27670499Y-95922321D01*
X27804461Y-96207003D01*
X27804464Y-96207009D01*
X27973051Y-96472661D01*
X27973054Y-96472665D01*
X28173606Y-96715090D01*
X28173608Y-96715092D01*
X28402968Y-96930476D01*
X28402978Y-96930484D01*
X28657504Y-97115408D01*
X28657509Y-97115410D01*
X28657516Y-97115416D01*
X28870286Y-97232388D01*
X28886566Y-97241338D01*
X28935830Y-97290884D01*
X28950486Y-97359200D01*
X28925882Y-97424594D01*
X28886566Y-97458662D01*
X28657516Y-97584584D01*
X28657504Y-97584591D01*
X28402978Y-97769515D01*
X28402968Y-97769523D01*
X28173608Y-97984907D01*
X28173606Y-97984909D01*
X27973054Y-98227334D01*
X27973051Y-98227338D01*
X27804464Y-98492990D01*
X27804461Y-98492996D01*
X27670499Y-98777678D01*
X27670497Y-98777683D01*
X27573270Y-99076916D01*
X27514311Y-99385988D01*
X27514310Y-99385995D01*
X27494556Y-99699994D01*
X27494556Y-99700005D01*
X27514310Y-100014004D01*
X27514311Y-100014011D01*
X27573270Y-100323083D01*
X27670497Y-100622316D01*
X27670499Y-100622321D01*
X27804461Y-100907003D01*
X27804464Y-100907009D01*
X27973051Y-101172661D01*
X27973054Y-101172665D01*
X28173606Y-101415090D01*
X28173608Y-101415092D01*
X28402968Y-101630476D01*
X28402978Y-101630484D01*
X28657504Y-101815408D01*
X28657522Y-101815420D01*
X28887085Y-101941623D01*
X28936349Y-101991169D01*
X28951006Y-102059484D01*
X28926402Y-102124879D01*
X28887086Y-102158947D01*
X28657781Y-102285008D01*
X28414972Y-102461418D01*
X28414971Y-102461419D01*
X29345669Y-103392117D01*
X29218252Y-103484691D01*
X29084691Y-103618252D01*
X28992117Y-103745669D01*
X28064286Y-102817838D01*
X28064285Y-102817838D01*
X27973459Y-102927629D01*
X27973457Y-102927632D01*
X27804903Y-103193232D01*
X27804900Y-103193238D01*
X27670965Y-103477862D01*
X27670963Y-103477867D01*
X27573755Y-103777041D01*
X27514808Y-104086050D01*
X27514807Y-104086057D01*
X27495057Y-104399994D01*
X27495057Y-104400005D01*
X27514807Y-104713942D01*
X27514808Y-104713949D01*
X27573755Y-105022958D01*
X27670963Y-105322132D01*
X27670965Y-105322137D01*
X27804900Y-105606761D01*
X27804903Y-105606767D01*
X27973457Y-105872367D01*
X27973460Y-105872371D01*
X28064286Y-105982160D01*
X28992116Y-105054329D01*
X29084691Y-105181748D01*
X29218252Y-105315309D01*
X29345669Y-105407882D01*
X28414971Y-106338579D01*
X28414972Y-106338581D01*
X28657772Y-106514985D01*
X28657790Y-106514996D01*
X28933447Y-106666540D01*
X28933455Y-106666544D01*
X29225926Y-106782340D01*
X29530620Y-106860573D01*
X29530629Y-106860575D01*
X29842701Y-106899999D01*
X29842715Y-106900000D01*
X30157285Y-106900000D01*
X30157298Y-106899999D01*
X30469370Y-106860575D01*
X30469379Y-106860573D01*
X30774073Y-106782340D01*
X31066544Y-106666544D01*
X31066552Y-106666540D01*
X31342209Y-106514996D01*
X31342219Y-106514990D01*
X31585026Y-106338579D01*
X31585027Y-106338579D01*
X30654330Y-105407882D01*
X30781748Y-105315309D01*
X30915309Y-105181748D01*
X31007882Y-105054330D01*
X31935712Y-105982160D01*
X32026544Y-105872364D01*
X32195096Y-105606767D01*
X32195099Y-105606761D01*
X32329034Y-105322137D01*
X32329036Y-105322132D01*
X32426244Y-105022958D01*
X32485191Y-104713949D01*
X32485192Y-104713942D01*
X32504943Y-104400005D01*
X32504943Y-104399994D01*
X32485192Y-104086057D01*
X32485191Y-104086053D01*
X32446169Y-103881491D01*
X32452943Y-103811950D01*
X32496238Y-103757111D01*
X32562308Y-103734384D01*
X32630177Y-103750986D01*
X32655654Y-103770574D01*
X35569735Y-106684655D01*
X35569764Y-106684686D01*
X35712214Y-106827136D01*
X35712218Y-106827139D01*
X35876079Y-106936628D01*
X35876092Y-106936635D01*
X36004833Y-106989961D01*
X36029070Y-107000000D01*
X36058164Y-107012051D01*
X36154812Y-107031275D01*
X36203135Y-107040887D01*
X36251458Y-107050500D01*
X36251459Y-107050500D01*
X56128542Y-107050500D01*
X56147870Y-107046655D01*
X56225188Y-107031275D01*
X56321836Y-107012051D01*
X56350929Y-107000000D01*
X102994675Y-107000000D01*
X103013962Y-107392591D01*
X103013962Y-107392597D01*
X103013963Y-107392599D01*
X103071637Y-107781406D01*
X103167143Y-108162684D01*
X103299561Y-108532770D01*
X103299562Y-108532772D01*
X103467620Y-108888100D01*
X103669692Y-109225236D01*
X103903846Y-109540956D01*
X104167807Y-109832192D01*
X104459043Y-110096153D01*
X104459049Y-110096158D01*
X104774761Y-110330306D01*
X104774763Y-110330307D01*
X105111899Y-110532379D01*
X105111902Y-110532380D01*
X105111903Y-110532381D01*
X105467228Y-110700438D01*
X105837316Y-110832857D01*
X106218600Y-110928364D01*
X106607409Y-110986038D01*
X107000000Y-111005325D01*
X107392591Y-110986038D01*
X107781400Y-110928364D01*
X108162684Y-110832857D01*
X108532772Y-110700438D01*
X108888097Y-110532381D01*
X109225239Y-110330306D01*
X109540951Y-110096158D01*
X109832192Y-109832192D01*
X110096158Y-109540951D01*
X110330306Y-109225239D01*
X110532381Y-108888097D01*
X110700438Y-108532772D01*
X110832857Y-108162684D01*
X110928364Y-107781400D01*
X110986038Y-107392591D01*
X111005325Y-107000000D01*
X110986038Y-106607409D01*
X110928364Y-106218600D01*
X110832857Y-105837316D01*
X110700438Y-105467228D01*
X110532381Y-105111903D01*
X110488261Y-105038294D01*
X110330307Y-104774763D01*
X110314577Y-104753553D01*
X110096158Y-104459049D01*
X110042644Y-104400005D01*
X109832192Y-104167807D01*
X109540956Y-103903846D01*
X109488547Y-103864977D01*
X109225239Y-103669694D01*
X109225236Y-103669692D01*
X108888100Y-103467620D01*
X108532772Y-103299562D01*
X108532770Y-103299561D01*
X108162684Y-103167143D01*
X107781406Y-103071637D01*
X107781401Y-103071636D01*
X107781400Y-103071636D01*
X107637256Y-103050254D01*
X107392599Y-103013963D01*
X107392597Y-103013962D01*
X107392591Y-103013962D01*
X107000000Y-102994675D01*
X106607409Y-103013962D01*
X106607403Y-103013962D01*
X106607400Y-103013963D01*
X106218593Y-103071637D01*
X105837315Y-103167143D01*
X105467229Y-103299561D01*
X105467227Y-103299562D01*
X105111899Y-103467620D01*
X104774763Y-103669692D01*
X104459043Y-103903846D01*
X104167807Y-104167807D01*
X103903846Y-104459043D01*
X103669692Y-104774763D01*
X103467620Y-105111899D01*
X103299562Y-105467227D01*
X103299561Y-105467229D01*
X103167143Y-105837315D01*
X103071637Y-106218593D01*
X103027672Y-106514985D01*
X103013962Y-106607409D01*
X102994675Y-107000000D01*
X56350929Y-107000000D01*
X56375165Y-106989961D01*
X56503914Y-106936632D01*
X56667782Y-106827139D01*
X56807139Y-106687782D01*
X56807140Y-106687779D01*
X56814206Y-106680714D01*
X56814209Y-106680710D01*
X57613030Y-105881888D01*
X57674351Y-105848405D01*
X57689894Y-105846044D01*
X57815408Y-105835063D01*
X58043663Y-105773903D01*
X58257830Y-105674035D01*
X58451401Y-105538495D01*
X58618495Y-105371401D01*
X58754035Y-105177830D01*
X58853903Y-104963663D01*
X58915063Y-104735408D01*
X58926043Y-104609901D01*
X58951495Y-104544834D01*
X58961882Y-104533037D01*
X61277140Y-102217781D01*
X61386632Y-102053914D01*
X61462052Y-101871835D01*
X61500501Y-101678540D01*
X61500501Y-101481459D01*
X61500501Y-101476349D01*
X61500500Y-101476323D01*
X61500500Y-95377588D01*
X61520185Y-95310549D01*
X61522925Y-95306465D01*
X61630568Y-95152734D01*
X61726739Y-94946496D01*
X61785635Y-94726692D01*
X61805468Y-94500000D01*
X61785635Y-94273308D01*
X61726739Y-94053504D01*
X61630568Y-93847266D01*
X61500047Y-93660861D01*
X61500045Y-93660858D01*
X61339141Y-93499954D01*
X61152734Y-93369432D01*
X61152732Y-93369431D01*
X60946497Y-93273261D01*
X60946488Y-93273258D01*
X60726697Y-93214366D01*
X60726693Y-93214365D01*
X60726692Y-93214365D01*
X60726691Y-93214364D01*
X60726686Y-93214364D01*
X60500002Y-93194532D01*
X60499998Y-93194532D01*
X60273313Y-93214364D01*
X60273302Y-93214366D01*
X60053511Y-93273258D01*
X60053502Y-93273261D01*
X59847267Y-93369431D01*
X59847265Y-93369432D01*
X59660858Y-93499954D01*
X59499954Y-93660858D01*
X59369432Y-93847265D01*
X59369431Y-93847267D01*
X59273261Y-94053502D01*
X59273258Y-94053511D01*
X59214366Y-94273302D01*
X59214364Y-94273313D01*
X59194532Y-94499998D01*
X59194532Y-94500001D01*
X59214364Y-94726686D01*
X59214366Y-94726697D01*
X59273258Y-94946488D01*
X59273261Y-94946497D01*
X59369431Y-95152732D01*
X59369432Y-95152734D01*
X59477075Y-95306465D01*
X59499402Y-95372671D01*
X59499500Y-95377588D01*
X59499500Y-101114216D01*
X59479815Y-101181255D01*
X59463181Y-101201897D01*
X57546969Y-103118108D01*
X57485646Y-103151593D01*
X57470097Y-103153955D01*
X57344596Y-103164936D01*
X57344586Y-103164938D01*
X57116344Y-103226094D01*
X57116335Y-103226098D01*
X56902171Y-103325964D01*
X56902169Y-103325965D01*
X56708597Y-103461505D01*
X56541505Y-103628597D01*
X56411575Y-103814158D01*
X56356998Y-103857783D01*
X56287500Y-103864977D01*
X56225145Y-103833454D01*
X56208425Y-103814158D01*
X56078494Y-103628597D01*
X56076819Y-103626922D01*
X56076315Y-103626000D01*
X56075014Y-103624449D01*
X56075325Y-103624187D01*
X56043334Y-103565599D01*
X56040500Y-103539241D01*
X56040500Y-99101457D01*
X56021275Y-99004813D01*
X56021275Y-99004812D01*
X56002051Y-98908164D01*
X55979961Y-98854834D01*
X55948005Y-98777685D01*
X55926635Y-98726092D01*
X55926628Y-98726079D01*
X55817140Y-98562219D01*
X55747911Y-98492990D01*
X55677782Y-98422861D01*
X55677781Y-98422860D01*
X51666887Y-94411966D01*
X51633402Y-94350643D01*
X51631040Y-94335092D01*
X51625635Y-94273313D01*
X51625635Y-94273308D01*
X51566739Y-94053504D01*
X51470568Y-93847266D01*
X51340047Y-93660861D01*
X51340045Y-93660858D01*
X51179141Y-93499954D01*
X50992734Y-93369432D01*
X50992732Y-93369431D01*
X50786497Y-93273261D01*
X50786488Y-93273258D01*
X50566697Y-93214366D01*
X50566693Y-93214365D01*
X50566692Y-93214365D01*
X50566691Y-93214364D01*
X50566686Y-93214364D01*
X50340002Y-93194532D01*
X50339998Y-93194532D01*
X50113313Y-93214364D01*
X50113302Y-93214366D01*
X49893511Y-93273258D01*
X49893502Y-93273261D01*
X49687267Y-93369431D01*
X49687265Y-93369432D01*
X49500858Y-93499954D01*
X49339954Y-93660858D01*
X49209432Y-93847265D01*
X49209431Y-93847267D01*
X49113261Y-94053502D01*
X49113258Y-94053511D01*
X49054366Y-94273302D01*
X49054364Y-94273313D01*
X49034532Y-94499998D01*
X49034532Y-94500001D01*
X49054364Y-94726686D01*
X49054366Y-94726697D01*
X49113258Y-94946488D01*
X49113261Y-94946497D01*
X49209431Y-95152732D01*
X49209432Y-95152734D01*
X49339954Y-95339141D01*
X49500858Y-95500045D01*
X49500861Y-95500047D01*
X49687266Y-95630568D01*
X49893504Y-95726739D01*
X50113308Y-95785635D01*
X50175093Y-95791040D01*
X50240161Y-95816492D01*
X50251966Y-95826887D01*
X54003181Y-99578101D01*
X54036666Y-99639424D01*
X54039500Y-99665782D01*
X54039500Y-103379140D01*
X54019815Y-103446179D01*
X53967011Y-103491934D01*
X53897853Y-103501878D01*
X53834297Y-103472853D01*
X53799318Y-103422473D01*
X53793797Y-103407671D01*
X53793793Y-103407664D01*
X53707547Y-103292455D01*
X53707544Y-103292452D01*
X53592335Y-103206206D01*
X53592328Y-103206202D01*
X53457482Y-103155908D01*
X53457483Y-103155908D01*
X53397883Y-103149501D01*
X53397881Y-103149500D01*
X53397873Y-103149500D01*
X53397864Y-103149500D01*
X51602129Y-103149500D01*
X51602123Y-103149501D01*
X51542516Y-103155908D01*
X51407671Y-103206202D01*
X51407664Y-103206206D01*
X51292455Y-103292452D01*
X51292452Y-103292455D01*
X51206206Y-103407664D01*
X51206202Y-103407671D01*
X51155908Y-103542517D01*
X51153427Y-103565599D01*
X51149500Y-103602127D01*
X51149500Y-104305558D01*
X51149501Y-104925500D01*
X51129816Y-104992539D01*
X51077013Y-105038294D01*
X51025501Y-105049500D01*
X36815782Y-105049500D01*
X36748743Y-105029815D01*
X36728101Y-105013181D01*
X32385130Y-100670210D01*
X32351645Y-100608887D01*
X32354880Y-100544211D01*
X32426731Y-100323079D01*
X32485688Y-100014015D01*
X32505444Y-99700000D01*
X32503291Y-99665782D01*
X32485689Y-99385995D01*
X32485688Y-99385988D01*
X32485688Y-99385985D01*
X32426731Y-99076921D01*
X32329503Y-98777685D01*
X32195537Y-98492993D01*
X32026947Y-98227337D01*
X32026945Y-98227334D01*
X31826393Y-97984909D01*
X31826391Y-97984907D01*
X31597031Y-97769523D01*
X31597021Y-97769515D01*
X31342495Y-97584591D01*
X31342488Y-97584586D01*
X31342484Y-97584584D01*
X31113431Y-97458660D01*
X31064169Y-97409116D01*
X31049513Y-97340801D01*
X31074117Y-97275406D01*
X31113431Y-97241339D01*
X31342484Y-97115416D01*
X31597030Y-96930478D01*
X31826390Y-96715094D01*
X32026947Y-96472663D01*
X32195537Y-96207007D01*
X32329503Y-95922315D01*
X32426731Y-95623079D01*
X32485688Y-95314015D01*
X32505444Y-95000000D01*
X32502077Y-94946488D01*
X32485689Y-94685995D01*
X32485688Y-94685988D01*
X32485688Y-94685985D01*
X32426731Y-94376921D01*
X32329503Y-94077685D01*
X32318124Y-94053504D01*
X32195538Y-93792996D01*
X32195537Y-93792993D01*
X32026947Y-93527337D01*
X32004293Y-93499953D01*
X31826393Y-93284909D01*
X31826391Y-93284907D01*
X31597031Y-93069523D01*
X31597021Y-93069515D01*
X31342495Y-92884591D01*
X31342488Y-92884586D01*
X31342484Y-92884584D01*
X31066766Y-92733006D01*
X31066763Y-92733004D01*
X31066758Y-92733002D01*
X31066757Y-92733001D01*
X30774228Y-92617181D01*
X30774225Y-92617180D01*
X30469476Y-92538934D01*
X30469463Y-92538932D01*
X30157329Y-92499500D01*
X30157318Y-92499500D01*
X29842682Y-92499500D01*
X29842670Y-92499500D01*
X29530536Y-92538932D01*
X29530523Y-92538934D01*
X29225776Y-92617180D01*
X29162764Y-92642128D01*
X29093186Y-92648504D01*
X29031206Y-92616251D01*
X29029437Y-92614516D01*
X23042601Y-86627680D01*
X23009116Y-86566357D01*
X23014100Y-86496665D01*
X23042601Y-86452318D01*
X27458101Y-82036819D01*
X27519424Y-82003334D01*
X27545782Y-82000500D01*
X30546042Y-82000500D01*
X30613081Y-82020185D01*
X30651580Y-82059402D01*
X30657288Y-82068656D01*
X30781344Y-82192712D01*
X30930666Y-82284814D01*
X31097203Y-82339999D01*
X31199991Y-82350500D01*
X32800008Y-82350499D01*
X32902797Y-82339999D01*
X33069334Y-82284814D01*
X33218656Y-82192712D01*
X33342712Y-82068656D01*
X33348420Y-82059402D01*
X33400368Y-82012678D01*
X33453958Y-82000500D01*
X41546042Y-82000500D01*
X41613081Y-82020185D01*
X41651580Y-82059402D01*
X41657288Y-82068656D01*
X41781344Y-82192712D01*
X41930666Y-82284814D01*
X42097203Y-82339999D01*
X42199991Y-82350500D01*
X43800008Y-82350499D01*
X43902797Y-82339999D01*
X44069334Y-82284814D01*
X44218656Y-82192712D01*
X44342712Y-82068656D01*
X44348420Y-82059402D01*
X44400368Y-82012678D01*
X44453958Y-82000500D01*
X52546042Y-82000500D01*
X52613081Y-82020185D01*
X52651580Y-82059402D01*
X52657288Y-82068656D01*
X52781344Y-82192712D01*
X52930666Y-82284814D01*
X53097203Y-82339999D01*
X53199991Y-82350500D01*
X54800008Y-82350499D01*
X54902797Y-82339999D01*
X55069334Y-82284814D01*
X55218656Y-82192712D01*
X55342712Y-82068656D01*
X55348420Y-82059402D01*
X55400368Y-82012678D01*
X55453958Y-82000500D01*
X63546042Y-82000500D01*
X63613081Y-82020185D01*
X63651580Y-82059402D01*
X63657288Y-82068656D01*
X63781344Y-82192712D01*
X63930666Y-82284814D01*
X64097203Y-82339999D01*
X64199991Y-82350500D01*
X65800008Y-82350499D01*
X65902797Y-82339999D01*
X66069334Y-82284814D01*
X66218656Y-82192712D01*
X66342712Y-82068656D01*
X66348420Y-82059402D01*
X66400368Y-82012678D01*
X66453958Y-82000500D01*
X74546042Y-82000500D01*
X74613081Y-82020185D01*
X74651580Y-82059402D01*
X74657288Y-82068656D01*
X74781344Y-82192712D01*
X74930666Y-82284814D01*
X75097203Y-82339999D01*
X75199991Y-82350500D01*
X76800008Y-82350499D01*
X76902797Y-82339999D01*
X77069334Y-82284814D01*
X77218656Y-82192712D01*
X77342712Y-82068656D01*
X77348420Y-82059402D01*
X77400368Y-82012678D01*
X77453958Y-82000500D01*
X85546042Y-82000500D01*
X85613081Y-82020185D01*
X85651580Y-82059402D01*
X85657288Y-82068656D01*
X85781344Y-82192712D01*
X85930666Y-82284814D01*
X86097203Y-82339999D01*
X86199991Y-82350500D01*
X87800008Y-82350499D01*
X87902797Y-82339999D01*
X88069334Y-82284814D01*
X88218656Y-82192712D01*
X88342712Y-82068656D01*
X88348420Y-82059402D01*
X88400368Y-82012678D01*
X88453958Y-82000500D01*
X96546042Y-82000500D01*
X96613081Y-82020185D01*
X96651580Y-82059402D01*
X96657288Y-82068656D01*
X96781344Y-82192712D01*
X96930666Y-82284814D01*
X97097203Y-82339999D01*
X97199991Y-82350500D01*
X98800008Y-82350499D01*
X98902797Y-82339999D01*
X99069334Y-82284814D01*
X99218656Y-82192712D01*
X99342712Y-82068656D01*
X99348420Y-82059402D01*
X99400368Y-82012678D01*
X99453958Y-82000500D01*
X107546042Y-82000500D01*
X107613081Y-82020185D01*
X107651580Y-82059402D01*
X107657288Y-82068656D01*
X107781344Y-82192712D01*
X107930666Y-82284814D01*
X108097203Y-82339999D01*
X108199991Y-82350500D01*
X109800008Y-82350499D01*
X109902797Y-82339999D01*
X110069334Y-82284814D01*
X110218656Y-82192712D01*
X110342712Y-82068656D01*
X110434814Y-81919334D01*
X110489999Y-81752797D01*
X110500500Y-81650009D01*
X110500499Y-80349992D01*
X110489999Y-80247203D01*
X110434814Y-80080666D01*
X110342712Y-79931344D01*
X110218656Y-79807288D01*
X110069334Y-79715186D01*
X110069333Y-79715185D01*
X110063878Y-79711821D01*
X110017154Y-79659873D01*
X110005931Y-79590910D01*
X110033775Y-79526828D01*
X110041272Y-79518623D01*
X110180104Y-79379792D01*
X110305051Y-79207816D01*
X110401557Y-79018412D01*
X110467246Y-78816243D01*
X110500500Y-78606287D01*
X110500500Y-78393713D01*
X110467246Y-78183757D01*
X110401557Y-77981588D01*
X110305051Y-77792184D01*
X110305049Y-77792181D01*
X110305048Y-77792179D01*
X110180109Y-77620213D01*
X110029786Y-77469890D01*
X109857820Y-77344951D01*
X109668414Y-77248444D01*
X109668413Y-77248443D01*
X109668412Y-77248443D01*
X109466243Y-77182754D01*
X109466241Y-77182753D01*
X109466240Y-77182753D01*
X109304957Y-77157208D01*
X109256287Y-77149500D01*
X108743713Y-77149500D01*
X108695042Y-77157208D01*
X108533760Y-77182753D01*
X108331585Y-77248444D01*
X108142179Y-77344951D01*
X107970213Y-77469890D01*
X107819890Y-77620213D01*
X107694951Y-77792179D01*
X107598444Y-77981585D01*
X107532753Y-78183760D01*
X107499500Y-78393713D01*
X107499500Y-78606286D01*
X107532753Y-78816239D01*
X107598444Y-79018414D01*
X107694951Y-79207820D01*
X107819890Y-79379786D01*
X107958705Y-79518601D01*
X107992190Y-79579924D01*
X107987206Y-79649616D01*
X107945334Y-79705549D01*
X107936121Y-79711821D01*
X107781342Y-79807289D01*
X107657287Y-79931344D01*
X107651580Y-79940598D01*
X107599632Y-79987322D01*
X107546042Y-79999500D01*
X99453958Y-79999500D01*
X99386919Y-79979815D01*
X99348420Y-79940598D01*
X99342712Y-79931344D01*
X99218657Y-79807289D01*
X99218656Y-79807288D01*
X99069334Y-79715186D01*
X99069333Y-79715185D01*
X99063878Y-79711821D01*
X99017154Y-79659873D01*
X99005931Y-79590910D01*
X99033775Y-79526828D01*
X99041272Y-79518623D01*
X99180104Y-79379792D01*
X99305051Y-79207816D01*
X99401557Y-79018412D01*
X99467246Y-78816243D01*
X99500500Y-78606287D01*
X99500500Y-78393713D01*
X99467246Y-78183757D01*
X99401557Y-77981588D01*
X99305051Y-77792184D01*
X99305049Y-77792181D01*
X99305048Y-77792179D01*
X99180109Y-77620213D01*
X99029786Y-77469890D01*
X98857820Y-77344951D01*
X98668414Y-77248444D01*
X98668413Y-77248443D01*
X98668412Y-77248443D01*
X98466243Y-77182754D01*
X98466241Y-77182753D01*
X98466240Y-77182753D01*
X98304957Y-77157208D01*
X98256287Y-77149500D01*
X97743713Y-77149500D01*
X97695042Y-77157208D01*
X97533760Y-77182753D01*
X97331585Y-77248444D01*
X97142179Y-77344951D01*
X96970213Y-77469890D01*
X96819890Y-77620213D01*
X96694951Y-77792179D01*
X96598444Y-77981585D01*
X96532753Y-78183760D01*
X96499500Y-78393713D01*
X96499500Y-78606286D01*
X96532753Y-78816239D01*
X96598444Y-79018414D01*
X96694951Y-79207820D01*
X96819890Y-79379786D01*
X96958705Y-79518601D01*
X96992190Y-79579924D01*
X96987206Y-79649616D01*
X96945334Y-79705549D01*
X96936121Y-79711821D01*
X96781342Y-79807289D01*
X96657287Y-79931344D01*
X96651580Y-79940598D01*
X96599632Y-79987322D01*
X96546042Y-79999500D01*
X88453958Y-79999500D01*
X88386919Y-79979815D01*
X88348420Y-79940598D01*
X88342712Y-79931344D01*
X88218657Y-79807289D01*
X88218656Y-79807288D01*
X88069334Y-79715186D01*
X88069333Y-79715185D01*
X88063878Y-79711821D01*
X88017154Y-79659873D01*
X88005931Y-79590910D01*
X88033775Y-79526828D01*
X88041272Y-79518623D01*
X88180104Y-79379792D01*
X88305051Y-79207816D01*
X88401557Y-79018412D01*
X88467246Y-78816243D01*
X88500500Y-78606287D01*
X88500500Y-78393713D01*
X88467246Y-78183757D01*
X88401557Y-77981588D01*
X88305051Y-77792184D01*
X88305049Y-77792181D01*
X88305048Y-77792179D01*
X88180109Y-77620213D01*
X88029786Y-77469890D01*
X87857820Y-77344951D01*
X87668414Y-77248444D01*
X87668413Y-77248443D01*
X87668412Y-77248443D01*
X87466243Y-77182754D01*
X87466241Y-77182753D01*
X87466240Y-77182753D01*
X87304957Y-77157208D01*
X87256287Y-77149500D01*
X86743713Y-77149500D01*
X86695042Y-77157208D01*
X86533760Y-77182753D01*
X86331585Y-77248444D01*
X86142179Y-77344951D01*
X85970213Y-77469890D01*
X85819890Y-77620213D01*
X85694951Y-77792179D01*
X85598444Y-77981585D01*
X85532753Y-78183760D01*
X85499500Y-78393713D01*
X85499500Y-78606286D01*
X85532753Y-78816239D01*
X85598444Y-79018414D01*
X85694951Y-79207820D01*
X85819890Y-79379786D01*
X85958705Y-79518601D01*
X85992190Y-79579924D01*
X85987206Y-79649616D01*
X85945334Y-79705549D01*
X85936121Y-79711821D01*
X85781342Y-79807289D01*
X85657287Y-79931344D01*
X85651580Y-79940598D01*
X85599632Y-79987322D01*
X85546042Y-79999500D01*
X77453958Y-79999500D01*
X77386919Y-79979815D01*
X77348420Y-79940598D01*
X77342712Y-79931344D01*
X77218657Y-79807289D01*
X77218656Y-79807288D01*
X77069334Y-79715186D01*
X77069333Y-79715185D01*
X77063878Y-79711821D01*
X77017154Y-79659873D01*
X77005931Y-79590910D01*
X77033775Y-79526828D01*
X77041272Y-79518623D01*
X77180104Y-79379792D01*
X77305051Y-79207816D01*
X77401557Y-79018412D01*
X77467246Y-78816243D01*
X77500500Y-78606287D01*
X77500500Y-78393713D01*
X77467246Y-78183757D01*
X77401557Y-77981588D01*
X77305051Y-77792184D01*
X77305049Y-77792181D01*
X77305048Y-77792179D01*
X77180109Y-77620213D01*
X77029786Y-77469890D01*
X76857820Y-77344951D01*
X76668414Y-77248444D01*
X76668413Y-77248443D01*
X76668412Y-77248443D01*
X76466243Y-77182754D01*
X76466241Y-77182753D01*
X76466240Y-77182753D01*
X76304957Y-77157208D01*
X76256287Y-77149500D01*
X75743713Y-77149500D01*
X75695042Y-77157208D01*
X75533760Y-77182753D01*
X75331585Y-77248444D01*
X75142179Y-77344951D01*
X74970213Y-77469890D01*
X74819890Y-77620213D01*
X74694951Y-77792179D01*
X74598444Y-77981585D01*
X74532753Y-78183760D01*
X74499500Y-78393713D01*
X74499500Y-78606286D01*
X74532753Y-78816239D01*
X74598444Y-79018414D01*
X74694951Y-79207820D01*
X74819890Y-79379786D01*
X74958705Y-79518601D01*
X74992190Y-79579924D01*
X74987206Y-79649616D01*
X74945334Y-79705549D01*
X74936121Y-79711821D01*
X74781342Y-79807289D01*
X74657287Y-79931344D01*
X74651580Y-79940598D01*
X74599632Y-79987322D01*
X74546042Y-79999500D01*
X66453958Y-79999500D01*
X66386919Y-79979815D01*
X66348420Y-79940598D01*
X66342712Y-79931344D01*
X66218657Y-79807289D01*
X66218656Y-79807288D01*
X66069334Y-79715186D01*
X66069333Y-79715185D01*
X66063878Y-79711821D01*
X66017154Y-79659873D01*
X66005931Y-79590910D01*
X66033775Y-79526828D01*
X66041272Y-79518623D01*
X66180104Y-79379792D01*
X66305051Y-79207816D01*
X66401557Y-79018412D01*
X66467246Y-78816243D01*
X66500500Y-78606287D01*
X66500500Y-78393713D01*
X66467246Y-78183757D01*
X66401557Y-77981588D01*
X66305051Y-77792184D01*
X66305049Y-77792181D01*
X66305048Y-77792179D01*
X66180109Y-77620213D01*
X66029786Y-77469890D01*
X65857820Y-77344951D01*
X65668414Y-77248444D01*
X65668413Y-77248443D01*
X65668412Y-77248443D01*
X65466243Y-77182754D01*
X65466241Y-77182753D01*
X65466240Y-77182753D01*
X65304957Y-77157208D01*
X65256287Y-77149500D01*
X64743713Y-77149500D01*
X64695042Y-77157208D01*
X64533760Y-77182753D01*
X64331585Y-77248444D01*
X64142179Y-77344951D01*
X63970213Y-77469890D01*
X63819890Y-77620213D01*
X63694951Y-77792179D01*
X63598444Y-77981585D01*
X63532753Y-78183760D01*
X63499500Y-78393713D01*
X63499500Y-78606286D01*
X63532753Y-78816239D01*
X63598444Y-79018414D01*
X63694951Y-79207820D01*
X63819890Y-79379786D01*
X63958705Y-79518601D01*
X63992190Y-79579924D01*
X63987206Y-79649616D01*
X63945334Y-79705549D01*
X63936121Y-79711821D01*
X63781342Y-79807289D01*
X63657287Y-79931344D01*
X63651580Y-79940598D01*
X63599632Y-79987322D01*
X63546042Y-79999500D01*
X55453958Y-79999500D01*
X55386919Y-79979815D01*
X55348420Y-79940598D01*
X55342712Y-79931344D01*
X55218657Y-79807289D01*
X55218656Y-79807288D01*
X55069334Y-79715186D01*
X55069333Y-79715185D01*
X55063878Y-79711821D01*
X55017154Y-79659873D01*
X55005931Y-79590910D01*
X55033775Y-79526828D01*
X55041272Y-79518623D01*
X55180104Y-79379792D01*
X55305051Y-79207816D01*
X55401557Y-79018412D01*
X55467246Y-78816243D01*
X55500500Y-78606287D01*
X55500500Y-78393713D01*
X55467246Y-78183757D01*
X55401557Y-77981588D01*
X55305051Y-77792184D01*
X55305049Y-77792181D01*
X55305048Y-77792179D01*
X55180109Y-77620213D01*
X55029786Y-77469890D01*
X54857820Y-77344951D01*
X54668414Y-77248444D01*
X54668413Y-77248443D01*
X54668412Y-77248443D01*
X54466243Y-77182754D01*
X54466241Y-77182753D01*
X54466240Y-77182753D01*
X54304957Y-77157208D01*
X54256287Y-77149500D01*
X53743713Y-77149500D01*
X53695042Y-77157208D01*
X53533760Y-77182753D01*
X53331585Y-77248444D01*
X53142179Y-77344951D01*
X52970213Y-77469890D01*
X52819890Y-77620213D01*
X52694951Y-77792179D01*
X52598444Y-77981585D01*
X52532753Y-78183760D01*
X52499500Y-78393713D01*
X52499500Y-78606286D01*
X52532753Y-78816239D01*
X52598444Y-79018414D01*
X52694951Y-79207820D01*
X52819890Y-79379786D01*
X52958705Y-79518601D01*
X52992190Y-79579924D01*
X52987206Y-79649616D01*
X52945334Y-79705549D01*
X52936121Y-79711821D01*
X52781342Y-79807289D01*
X52657287Y-79931344D01*
X52651580Y-79940598D01*
X52599632Y-79987322D01*
X52546042Y-79999500D01*
X44453958Y-79999500D01*
X44386919Y-79979815D01*
X44348420Y-79940598D01*
X44342712Y-79931344D01*
X44218657Y-79807289D01*
X44218656Y-79807288D01*
X44069334Y-79715186D01*
X44069333Y-79715185D01*
X44063878Y-79711821D01*
X44017154Y-79659873D01*
X44005931Y-79590910D01*
X44033775Y-79526828D01*
X44041272Y-79518623D01*
X44180104Y-79379792D01*
X44305051Y-79207816D01*
X44401557Y-79018412D01*
X44467246Y-78816243D01*
X44500500Y-78606287D01*
X44500500Y-78393713D01*
X44467246Y-78183757D01*
X44401557Y-77981588D01*
X44305051Y-77792184D01*
X44305049Y-77792181D01*
X44305048Y-77792179D01*
X44180109Y-77620213D01*
X44029786Y-77469890D01*
X43857820Y-77344951D01*
X43668414Y-77248444D01*
X43668413Y-77248443D01*
X43668412Y-77248443D01*
X43466243Y-77182754D01*
X43466241Y-77182753D01*
X43466240Y-77182753D01*
X43304957Y-77157208D01*
X43256287Y-77149500D01*
X42743713Y-77149500D01*
X42695042Y-77157208D01*
X42533760Y-77182753D01*
X42331585Y-77248444D01*
X42142179Y-77344951D01*
X41970213Y-77469890D01*
X41819890Y-77620213D01*
X41694951Y-77792179D01*
X41598444Y-77981585D01*
X41532753Y-78183760D01*
X41499500Y-78393713D01*
X41499500Y-78606286D01*
X41532753Y-78816239D01*
X41598444Y-79018414D01*
X41694951Y-79207820D01*
X41819890Y-79379786D01*
X41958705Y-79518601D01*
X41992190Y-79579924D01*
X41987206Y-79649616D01*
X41945334Y-79705549D01*
X41936121Y-79711821D01*
X41781342Y-79807289D01*
X41657287Y-79931344D01*
X41651580Y-79940598D01*
X41599632Y-79987322D01*
X41546042Y-79999500D01*
X33453958Y-79999500D01*
X33386919Y-79979815D01*
X33348420Y-79940598D01*
X33342712Y-79931344D01*
X33218657Y-79807289D01*
X33218656Y-79807288D01*
X33069334Y-79715186D01*
X33069333Y-79715185D01*
X33063878Y-79711821D01*
X33017154Y-79659873D01*
X33005931Y-79590910D01*
X33033775Y-79526828D01*
X33041272Y-79518623D01*
X33180104Y-79379792D01*
X33305051Y-79207816D01*
X33401557Y-79018412D01*
X33467246Y-78816243D01*
X33500500Y-78606287D01*
X33500500Y-78393713D01*
X33467246Y-78183757D01*
X33401557Y-77981588D01*
X33305051Y-77792184D01*
X33305049Y-77792181D01*
X33305048Y-77792179D01*
X33180109Y-77620213D01*
X33029786Y-77469890D01*
X32857820Y-77344951D01*
X32668414Y-77248444D01*
X32668413Y-77248443D01*
X32668412Y-77248443D01*
X32466243Y-77182754D01*
X32466241Y-77182753D01*
X32466240Y-77182753D01*
X32304957Y-77157208D01*
X32256287Y-77149500D01*
X31743713Y-77149500D01*
X31695042Y-77157208D01*
X31533760Y-77182753D01*
X31331585Y-77248444D01*
X31142179Y-77344951D01*
X30970213Y-77469890D01*
X30819890Y-77620213D01*
X30694951Y-77792179D01*
X30598444Y-77981585D01*
X30532753Y-78183760D01*
X30499500Y-78393713D01*
X30499500Y-78606286D01*
X30532753Y-78816239D01*
X30598444Y-79018414D01*
X30694951Y-79207820D01*
X30819890Y-79379786D01*
X30958705Y-79518601D01*
X30992190Y-79579924D01*
X30987206Y-79649616D01*
X30945334Y-79705549D01*
X30936121Y-79711821D01*
X30781342Y-79807289D01*
X30657287Y-79931344D01*
X30651580Y-79940598D01*
X30599632Y-79987322D01*
X30546042Y-79999500D01*
X26981455Y-79999500D01*
X26884812Y-80018724D01*
X26788167Y-80037947D01*
X26788161Y-80037949D01*
X26734834Y-80060037D01*
X26734834Y-80060038D01*
X26689315Y-80078892D01*
X26606089Y-80113366D01*
X26606079Y-80113371D01*
X26442219Y-80222859D01*
X26372540Y-80292538D01*
X26302861Y-80362218D01*
X26302858Y-80362221D01*
X23720117Y-82944963D01*
X21161899Y-85503181D01*
X21100576Y-85536666D01*
X21074218Y-85539500D01*
X18960758Y-85539500D01*
X18893719Y-85519815D01*
X18873077Y-85503181D01*
X18871402Y-85501506D01*
X18871396Y-85501501D01*
X18685842Y-85371575D01*
X18642217Y-85316998D01*
X18635023Y-85247500D01*
X18666546Y-85185145D01*
X18685842Y-85168425D01*
X18708026Y-85152891D01*
X18871401Y-85038495D01*
X19038495Y-84871401D01*
X19174035Y-84677830D01*
X19273903Y-84463663D01*
X19335063Y-84235408D01*
X19355659Y-84000000D01*
X19335063Y-83764592D01*
X19273903Y-83536337D01*
X19174035Y-83322171D01*
X19038495Y-83128599D01*
X18916179Y-83006283D01*
X18882696Y-82944963D01*
X18887680Y-82875271D01*
X18929551Y-82819337D01*
X18960529Y-82802422D01*
X19092086Y-82753354D01*
X19092093Y-82753350D01*
X19207187Y-82667190D01*
X19207190Y-82667187D01*
X19293350Y-82552093D01*
X19293354Y-82552086D01*
X19343596Y-82417379D01*
X19343598Y-82417372D01*
X19349999Y-82357844D01*
X19350000Y-82357827D01*
X19350000Y-81710000D01*
X18433012Y-81710000D01*
X18465925Y-81652993D01*
X18500000Y-81525826D01*
X18500000Y-81394174D01*
X18465925Y-81267007D01*
X18433012Y-81210000D01*
X19350000Y-81210000D01*
X19350000Y-80562172D01*
X19349999Y-80562155D01*
X19343598Y-80502627D01*
X19343596Y-80502620D01*
X19293354Y-80367913D01*
X19293350Y-80367906D01*
X19207190Y-80252812D01*
X19207187Y-80252809D01*
X19092093Y-80166649D01*
X19092086Y-80166645D01*
X18957379Y-80116403D01*
X18957372Y-80116401D01*
X18897844Y-80110000D01*
X18250000Y-80110000D01*
X18250000Y-81026988D01*
X18192993Y-80994075D01*
X18065826Y-80960000D01*
X17934174Y-80960000D01*
X17807007Y-80994075D01*
X17750000Y-81026988D01*
X17750000Y-80110000D01*
X17102155Y-80110000D01*
X17042627Y-80116401D01*
X17042620Y-80116403D01*
X16907913Y-80166645D01*
X16907906Y-80166649D01*
X16792812Y-80252809D01*
X16792809Y-80252812D01*
X16706649Y-80367906D01*
X16706645Y-80367913D01*
X16656403Y-80502620D01*
X16656401Y-80502627D01*
X16650000Y-80562155D01*
X16650000Y-81210000D01*
X17566988Y-81210000D01*
X17534075Y-81267007D01*
X17500000Y-81394174D01*
X17500000Y-81525826D01*
X17534075Y-81652993D01*
X17566988Y-81710000D01*
X16650000Y-81710000D01*
X16650000Y-82357844D01*
X16656401Y-82417372D01*
X16656403Y-82417379D01*
X16706645Y-82552086D01*
X16706649Y-82552093D01*
X16792809Y-82667187D01*
X16792812Y-82667190D01*
X16907906Y-82753350D01*
X16907913Y-82753354D01*
X17039470Y-82802421D01*
X17095403Y-82844292D01*
X17119821Y-82909756D01*
X17104970Y-82978029D01*
X17083819Y-83006284D01*
X16961503Y-83128600D01*
X16825965Y-83322169D01*
X16825964Y-83322171D01*
X16726098Y-83536335D01*
X16726094Y-83536344D01*
X16664938Y-83764586D01*
X16664936Y-83764596D01*
X16644341Y-83999999D01*
X12500500Y-83999999D01*
X12500500Y-65393713D01*
X30499500Y-65393713D01*
X30499500Y-65606286D01*
X30532753Y-65816239D01*
X30598444Y-66018414D01*
X30694951Y-66207820D01*
X30819890Y-66379786D01*
X30959068Y-66518964D01*
X30992553Y-66580287D01*
X30987569Y-66649979D01*
X30945697Y-66705912D01*
X30936484Y-66712183D01*
X30781659Y-66807680D01*
X30781655Y-66807683D01*
X30657684Y-66931654D01*
X30565643Y-67080875D01*
X30565641Y-67080880D01*
X30510494Y-67247302D01*
X30510493Y-67247309D01*
X30500000Y-67350013D01*
X30500000Y-67750000D01*
X31566988Y-67750000D01*
X31534075Y-67807007D01*
X31500000Y-67934174D01*
X31500000Y-68065826D01*
X31534075Y-68192993D01*
X31566988Y-68250000D01*
X30500001Y-68250000D01*
X30500001Y-68649986D01*
X30510494Y-68752697D01*
X30565641Y-68919119D01*
X30565643Y-68919124D01*
X30657684Y-69068345D01*
X30781654Y-69192315D01*
X30930875Y-69284356D01*
X30930880Y-69284358D01*
X31097302Y-69339505D01*
X31097309Y-69339506D01*
X31200019Y-69349999D01*
X31749999Y-69349999D01*
X31750000Y-69349998D01*
X31750000Y-68433012D01*
X31807007Y-68465925D01*
X31934174Y-68500000D01*
X32065826Y-68500000D01*
X32192993Y-68465925D01*
X32250000Y-68433012D01*
X32250000Y-69349999D01*
X32799972Y-69349999D01*
X32799986Y-69349998D01*
X32902697Y-69339505D01*
X33069119Y-69284358D01*
X33069124Y-69284356D01*
X33218345Y-69192315D01*
X33342315Y-69068345D01*
X33434356Y-68919124D01*
X33434358Y-68919119D01*
X33489505Y-68752697D01*
X33489506Y-68752690D01*
X33499999Y-68649986D01*
X33500000Y-68649973D01*
X33500000Y-68250000D01*
X32433012Y-68250000D01*
X32465925Y-68192993D01*
X32500000Y-68065826D01*
X32500000Y-67934174D01*
X32465925Y-67807007D01*
X32433012Y-67750000D01*
X33499999Y-67750000D01*
X33499999Y-67350028D01*
X33499998Y-67350013D01*
X33489505Y-67247302D01*
X33434358Y-67080880D01*
X33434356Y-67080875D01*
X33342315Y-66931654D01*
X33218345Y-66807684D01*
X33063515Y-66712184D01*
X33016791Y-66660236D01*
X33005568Y-66591273D01*
X33033412Y-66527191D01*
X33040909Y-66518986D01*
X33180104Y-66379792D01*
X33305051Y-66207816D01*
X33401557Y-66018412D01*
X33467246Y-65816243D01*
X33500500Y-65606287D01*
X33500500Y-65393713D01*
X41499500Y-65393713D01*
X41499500Y-65606286D01*
X41532753Y-65816239D01*
X41598444Y-66018414D01*
X41694951Y-66207820D01*
X41819890Y-66379786D01*
X41959068Y-66518964D01*
X41992553Y-66580287D01*
X41987569Y-66649979D01*
X41945697Y-66705912D01*
X41936484Y-66712183D01*
X41781659Y-66807680D01*
X41781655Y-66807683D01*
X41657684Y-66931654D01*
X41565643Y-67080875D01*
X41565641Y-67080880D01*
X41510494Y-67247302D01*
X41510493Y-67247309D01*
X41500000Y-67350013D01*
X41500000Y-67750000D01*
X42566988Y-67750000D01*
X42534075Y-67807007D01*
X42500000Y-67934174D01*
X42500000Y-68065826D01*
X42534075Y-68192993D01*
X42566988Y-68250000D01*
X41500001Y-68250000D01*
X41500001Y-68649986D01*
X41510494Y-68752697D01*
X41565641Y-68919119D01*
X41565643Y-68919124D01*
X41657684Y-69068345D01*
X41781654Y-69192315D01*
X41930875Y-69284356D01*
X41930880Y-69284358D01*
X42097302Y-69339505D01*
X42097309Y-69339506D01*
X42200019Y-69349999D01*
X42749999Y-69349999D01*
X42750000Y-69349998D01*
X42750000Y-68433012D01*
X42807007Y-68465925D01*
X42934174Y-68500000D01*
X43065826Y-68500000D01*
X43192993Y-68465925D01*
X43250000Y-68433012D01*
X43250000Y-69349999D01*
X43799972Y-69349999D01*
X43799986Y-69349998D01*
X43902697Y-69339505D01*
X44069119Y-69284358D01*
X44069124Y-69284356D01*
X44218345Y-69192315D01*
X44342315Y-69068345D01*
X44434356Y-68919124D01*
X44434358Y-68919119D01*
X44489505Y-68752697D01*
X44489506Y-68752690D01*
X44499999Y-68649986D01*
X44500000Y-68649973D01*
X44500000Y-68250000D01*
X43433012Y-68250000D01*
X43465925Y-68192993D01*
X43500000Y-68065826D01*
X43500000Y-67934174D01*
X43465925Y-67807007D01*
X43433012Y-67750000D01*
X44499999Y-67750000D01*
X44499999Y-67350028D01*
X44499998Y-67350013D01*
X44489505Y-67247302D01*
X44434358Y-67080880D01*
X44434356Y-67080875D01*
X44342315Y-66931654D01*
X44218345Y-66807684D01*
X44063515Y-66712184D01*
X44016791Y-66660236D01*
X44005568Y-66591273D01*
X44033412Y-66527191D01*
X44040909Y-66518986D01*
X44180104Y-66379792D01*
X44305051Y-66207816D01*
X44401557Y-66018412D01*
X44467246Y-65816243D01*
X44500500Y-65606287D01*
X44500500Y-65393713D01*
X52499500Y-65393713D01*
X52499500Y-65606286D01*
X52532753Y-65816239D01*
X52598444Y-66018414D01*
X52694951Y-66207820D01*
X52819890Y-66379786D01*
X52959068Y-66518964D01*
X52992553Y-66580287D01*
X52987569Y-66649979D01*
X52945697Y-66705912D01*
X52936484Y-66712183D01*
X52781659Y-66807680D01*
X52781655Y-66807683D01*
X52657684Y-66931654D01*
X52565643Y-67080875D01*
X52565641Y-67080880D01*
X52510494Y-67247302D01*
X52510493Y-67247309D01*
X52500000Y-67350013D01*
X52500000Y-67750000D01*
X53566988Y-67750000D01*
X53534075Y-67807007D01*
X53500000Y-67934174D01*
X53500000Y-68065826D01*
X53534075Y-68192993D01*
X53566988Y-68250000D01*
X52500001Y-68250000D01*
X52500001Y-68649986D01*
X52510494Y-68752697D01*
X52565641Y-68919119D01*
X52565643Y-68919124D01*
X52657684Y-69068345D01*
X52781654Y-69192315D01*
X52930875Y-69284356D01*
X52930880Y-69284358D01*
X53097302Y-69339505D01*
X53097309Y-69339506D01*
X53200019Y-69349999D01*
X53749999Y-69349999D01*
X53750000Y-69349998D01*
X53750000Y-68433012D01*
X53807007Y-68465925D01*
X53934174Y-68500000D01*
X54065826Y-68500000D01*
X54192993Y-68465925D01*
X54250000Y-68433012D01*
X54250000Y-69349999D01*
X54799972Y-69349999D01*
X54799986Y-69349998D01*
X54902697Y-69339505D01*
X55069119Y-69284358D01*
X55069124Y-69284356D01*
X55218345Y-69192315D01*
X55342315Y-69068345D01*
X55434356Y-68919124D01*
X55434358Y-68919119D01*
X55489505Y-68752697D01*
X55489506Y-68752690D01*
X55499999Y-68649986D01*
X55500000Y-68649973D01*
X55500000Y-68250000D01*
X54433012Y-68250000D01*
X54465925Y-68192993D01*
X54500000Y-68065826D01*
X54500000Y-67934174D01*
X54465925Y-67807007D01*
X54433012Y-67750000D01*
X55499999Y-67750000D01*
X55499999Y-67350028D01*
X55499998Y-67350013D01*
X55489505Y-67247302D01*
X55434358Y-67080880D01*
X55434356Y-67080875D01*
X55342315Y-66931654D01*
X55218345Y-66807684D01*
X55063515Y-66712184D01*
X55016791Y-66660236D01*
X55005568Y-66591273D01*
X55033412Y-66527191D01*
X55040909Y-66518986D01*
X55180104Y-66379792D01*
X55305051Y-66207816D01*
X55401557Y-66018412D01*
X55467246Y-65816243D01*
X55500500Y-65606287D01*
X55500500Y-65393713D01*
X63499500Y-65393713D01*
X63499500Y-65606286D01*
X63532753Y-65816239D01*
X63598444Y-66018414D01*
X63694951Y-66207820D01*
X63819890Y-66379786D01*
X63959068Y-66518964D01*
X63992553Y-66580287D01*
X63987569Y-66649979D01*
X63945697Y-66705912D01*
X63936484Y-66712183D01*
X63781659Y-66807680D01*
X63781655Y-66807683D01*
X63657684Y-66931654D01*
X63565643Y-67080875D01*
X63565641Y-67080880D01*
X63510494Y-67247302D01*
X63510493Y-67247309D01*
X63500000Y-67350013D01*
X63500000Y-67750000D01*
X64566988Y-67750000D01*
X64534075Y-67807007D01*
X64500000Y-67934174D01*
X64500000Y-68065826D01*
X64534075Y-68192993D01*
X64566988Y-68250000D01*
X63500001Y-68250000D01*
X63500001Y-68649986D01*
X63510494Y-68752697D01*
X63565641Y-68919119D01*
X63565643Y-68919124D01*
X63657684Y-69068345D01*
X63781654Y-69192315D01*
X63930875Y-69284356D01*
X63930880Y-69284358D01*
X64097302Y-69339505D01*
X64097309Y-69339506D01*
X64200019Y-69349999D01*
X64749999Y-69349999D01*
X64750000Y-69349998D01*
X64750000Y-68433012D01*
X64807007Y-68465925D01*
X64934174Y-68500000D01*
X65065826Y-68500000D01*
X65192993Y-68465925D01*
X65250000Y-68433012D01*
X65250000Y-69349999D01*
X65799972Y-69349999D01*
X65799986Y-69349998D01*
X65902697Y-69339505D01*
X66069119Y-69284358D01*
X66069124Y-69284356D01*
X66218345Y-69192315D01*
X66342315Y-69068345D01*
X66434356Y-68919124D01*
X66434358Y-68919119D01*
X66489505Y-68752697D01*
X66489506Y-68752690D01*
X66499999Y-68649986D01*
X66500000Y-68649973D01*
X66500000Y-68250000D01*
X65433012Y-68250000D01*
X65465925Y-68192993D01*
X65500000Y-68065826D01*
X65500000Y-67934174D01*
X65465925Y-67807007D01*
X65433012Y-67750000D01*
X66499999Y-67750000D01*
X66499999Y-67350028D01*
X66499998Y-67350013D01*
X66489505Y-67247302D01*
X66434358Y-67080880D01*
X66434356Y-67080875D01*
X66342315Y-66931654D01*
X66218345Y-66807684D01*
X66063515Y-66712184D01*
X66016791Y-66660236D01*
X66005568Y-66591273D01*
X66033412Y-66527191D01*
X66040909Y-66518986D01*
X66180104Y-66379792D01*
X66305051Y-66207816D01*
X66401557Y-66018412D01*
X66467246Y-65816243D01*
X66500500Y-65606287D01*
X66500500Y-65393713D01*
X74499500Y-65393713D01*
X74499500Y-65606286D01*
X74532753Y-65816239D01*
X74598444Y-66018414D01*
X74694951Y-66207820D01*
X74819890Y-66379786D01*
X74959068Y-66518964D01*
X74992553Y-66580287D01*
X74987569Y-66649979D01*
X74945697Y-66705912D01*
X74936484Y-66712183D01*
X74781659Y-66807680D01*
X74781655Y-66807683D01*
X74657684Y-66931654D01*
X74565643Y-67080875D01*
X74565641Y-67080880D01*
X74510494Y-67247302D01*
X74510493Y-67247309D01*
X74500000Y-67350013D01*
X74500000Y-67750000D01*
X75566988Y-67750000D01*
X75534075Y-67807007D01*
X75500000Y-67934174D01*
X75500000Y-68065826D01*
X75534075Y-68192993D01*
X75566988Y-68250000D01*
X74500001Y-68250000D01*
X74500001Y-68649986D01*
X74510494Y-68752697D01*
X74565641Y-68919119D01*
X74565643Y-68919124D01*
X74657684Y-69068345D01*
X74781654Y-69192315D01*
X74930875Y-69284356D01*
X74930880Y-69284358D01*
X75097302Y-69339505D01*
X75097309Y-69339506D01*
X75200019Y-69349999D01*
X75749999Y-69349999D01*
X75750000Y-69349998D01*
X75750000Y-68433012D01*
X75807007Y-68465925D01*
X75934174Y-68500000D01*
X76065826Y-68500000D01*
X76192993Y-68465925D01*
X76250000Y-68433012D01*
X76250000Y-69349999D01*
X76799972Y-69349999D01*
X76799986Y-69349998D01*
X76902697Y-69339505D01*
X77069119Y-69284358D01*
X77069124Y-69284356D01*
X77218345Y-69192315D01*
X77342315Y-69068345D01*
X77434356Y-68919124D01*
X77434358Y-68919119D01*
X77489505Y-68752697D01*
X77489506Y-68752690D01*
X77499999Y-68649986D01*
X77500000Y-68649973D01*
X77500000Y-68250000D01*
X76433012Y-68250000D01*
X76465925Y-68192993D01*
X76500000Y-68065826D01*
X76500000Y-67934174D01*
X76465925Y-67807007D01*
X76433012Y-67750000D01*
X77499999Y-67750000D01*
X77499999Y-67350028D01*
X77499998Y-67350013D01*
X77489505Y-67247302D01*
X77434358Y-67080880D01*
X77434356Y-67080875D01*
X77342315Y-66931654D01*
X77218345Y-66807684D01*
X77063515Y-66712184D01*
X77016791Y-66660236D01*
X77005568Y-66591273D01*
X77033412Y-66527191D01*
X77040909Y-66518986D01*
X77180104Y-66379792D01*
X77305051Y-66207816D01*
X77401557Y-66018412D01*
X77467246Y-65816243D01*
X77500500Y-65606287D01*
X77500500Y-65393713D01*
X85499500Y-65393713D01*
X85499500Y-65606286D01*
X85532753Y-65816239D01*
X85598444Y-66018414D01*
X85694951Y-66207820D01*
X85819890Y-66379786D01*
X85959068Y-66518964D01*
X85992553Y-66580287D01*
X85987569Y-66649979D01*
X85945697Y-66705912D01*
X85936484Y-66712183D01*
X85781659Y-66807680D01*
X85781655Y-66807683D01*
X85657684Y-66931654D01*
X85565643Y-67080875D01*
X85565641Y-67080880D01*
X85510494Y-67247302D01*
X85510493Y-67247309D01*
X85500000Y-67350013D01*
X85500000Y-67750000D01*
X86566988Y-67750000D01*
X86534075Y-67807007D01*
X86500000Y-67934174D01*
X86500000Y-68065826D01*
X86534075Y-68192993D01*
X86566988Y-68250000D01*
X85500001Y-68250000D01*
X85500001Y-68649986D01*
X85510494Y-68752697D01*
X85565641Y-68919119D01*
X85565643Y-68919124D01*
X85657684Y-69068345D01*
X85781654Y-69192315D01*
X85930875Y-69284356D01*
X85930880Y-69284358D01*
X86097302Y-69339505D01*
X86097309Y-69339506D01*
X86200019Y-69349999D01*
X86749999Y-69349999D01*
X86750000Y-69349998D01*
X86750000Y-68433012D01*
X86807007Y-68465925D01*
X86934174Y-68500000D01*
X87065826Y-68500000D01*
X87192993Y-68465925D01*
X87250000Y-68433012D01*
X87250000Y-69349999D01*
X87799972Y-69349999D01*
X87799986Y-69349998D01*
X87902697Y-69339505D01*
X88069119Y-69284358D01*
X88069124Y-69284356D01*
X88218345Y-69192315D01*
X88342315Y-69068345D01*
X88434356Y-68919124D01*
X88434358Y-68919119D01*
X88489505Y-68752697D01*
X88489506Y-68752690D01*
X88499999Y-68649986D01*
X88500000Y-68649973D01*
X88500000Y-68250000D01*
X87433012Y-68250000D01*
X87465925Y-68192993D01*
X87500000Y-68065826D01*
X87500000Y-67934174D01*
X87465925Y-67807007D01*
X87433012Y-67750000D01*
X88499999Y-67750000D01*
X88499999Y-67350028D01*
X88499998Y-67350013D01*
X88489505Y-67247302D01*
X88434358Y-67080880D01*
X88434356Y-67080875D01*
X88342315Y-66931654D01*
X88218345Y-66807684D01*
X88063515Y-66712184D01*
X88016791Y-66660236D01*
X88005568Y-66591273D01*
X88033412Y-66527191D01*
X88040909Y-66518986D01*
X88180104Y-66379792D01*
X88305051Y-66207816D01*
X88401557Y-66018412D01*
X88467246Y-65816243D01*
X88500500Y-65606287D01*
X88500500Y-65393713D01*
X96499500Y-65393713D01*
X96499500Y-65606286D01*
X96532753Y-65816239D01*
X96598444Y-66018414D01*
X96694951Y-66207820D01*
X96819890Y-66379786D01*
X96959068Y-66518964D01*
X96992553Y-66580287D01*
X96987569Y-66649979D01*
X96945697Y-66705912D01*
X96936484Y-66712183D01*
X96781659Y-66807680D01*
X96781655Y-66807683D01*
X96657684Y-66931654D01*
X96565643Y-67080875D01*
X96565641Y-67080880D01*
X96510494Y-67247302D01*
X96510493Y-67247309D01*
X96500000Y-67350013D01*
X96500000Y-67750000D01*
X97566988Y-67750000D01*
X97534075Y-67807007D01*
X97500000Y-67934174D01*
X97500000Y-68065826D01*
X97534075Y-68192993D01*
X97566988Y-68250000D01*
X96500001Y-68250000D01*
X96500001Y-68649986D01*
X96510494Y-68752697D01*
X96565641Y-68919119D01*
X96565643Y-68919124D01*
X96657684Y-69068345D01*
X96781654Y-69192315D01*
X96930875Y-69284356D01*
X96930880Y-69284358D01*
X97097302Y-69339505D01*
X97097309Y-69339506D01*
X97200019Y-69349999D01*
X97749999Y-69349999D01*
X97750000Y-69349998D01*
X97750000Y-68433012D01*
X97807007Y-68465925D01*
X97934174Y-68500000D01*
X98065826Y-68500000D01*
X98192993Y-68465925D01*
X98250000Y-68433012D01*
X98250000Y-69349999D01*
X98799972Y-69349999D01*
X98799986Y-69349998D01*
X98902697Y-69339505D01*
X99069119Y-69284358D01*
X99069124Y-69284356D01*
X99218345Y-69192315D01*
X99342315Y-69068345D01*
X99434356Y-68919124D01*
X99434358Y-68919119D01*
X99489505Y-68752697D01*
X99489506Y-68752690D01*
X99499999Y-68649986D01*
X99500000Y-68649973D01*
X99500000Y-68250000D01*
X98433012Y-68250000D01*
X98465925Y-68192993D01*
X98500000Y-68065826D01*
X98500000Y-67934174D01*
X98465925Y-67807007D01*
X98433012Y-67750000D01*
X99499999Y-67750000D01*
X99499999Y-67350028D01*
X99499998Y-67350013D01*
X99489505Y-67247302D01*
X99434358Y-67080880D01*
X99434356Y-67080875D01*
X99342315Y-66931654D01*
X99218345Y-66807684D01*
X99063515Y-66712184D01*
X99016791Y-66660236D01*
X99005568Y-66591273D01*
X99033412Y-66527191D01*
X99040909Y-66518986D01*
X99180104Y-66379792D01*
X99305051Y-66207816D01*
X99401557Y-66018412D01*
X99467246Y-65816243D01*
X99500500Y-65606287D01*
X99500500Y-65393713D01*
X107499500Y-65393713D01*
X107499500Y-65606286D01*
X107532753Y-65816239D01*
X107598444Y-66018414D01*
X107694951Y-66207820D01*
X107819890Y-66379786D01*
X107959068Y-66518964D01*
X107992553Y-66580287D01*
X107987569Y-66649979D01*
X107945697Y-66705912D01*
X107936484Y-66712183D01*
X107781659Y-66807680D01*
X107781655Y-66807683D01*
X107657684Y-66931654D01*
X107565643Y-67080875D01*
X107565641Y-67080880D01*
X107510494Y-67247302D01*
X107510493Y-67247309D01*
X107500000Y-67350013D01*
X107500000Y-67750000D01*
X108566988Y-67750000D01*
X108534075Y-67807007D01*
X108500000Y-67934174D01*
X108500000Y-68065826D01*
X108534075Y-68192993D01*
X108566988Y-68250000D01*
X107500001Y-68250000D01*
X107500001Y-68649986D01*
X107510494Y-68752697D01*
X107565641Y-68919119D01*
X107565643Y-68919124D01*
X107657684Y-69068345D01*
X107781654Y-69192315D01*
X107930875Y-69284356D01*
X107930880Y-69284358D01*
X108097302Y-69339505D01*
X108097309Y-69339506D01*
X108200019Y-69349999D01*
X108749999Y-69349999D01*
X108750000Y-69349998D01*
X108750000Y-68433012D01*
X108807007Y-68465925D01*
X108934174Y-68500000D01*
X109065826Y-68500000D01*
X109192993Y-68465925D01*
X109250000Y-68433012D01*
X109250000Y-69349999D01*
X109799972Y-69349999D01*
X109799986Y-69349998D01*
X109902697Y-69339505D01*
X110069119Y-69284358D01*
X110069124Y-69284356D01*
X110218345Y-69192315D01*
X110342315Y-69068345D01*
X110434356Y-68919124D01*
X110434358Y-68919119D01*
X110489505Y-68752697D01*
X110489506Y-68752690D01*
X110499999Y-68649986D01*
X110500000Y-68649973D01*
X110500000Y-68250000D01*
X109433012Y-68250000D01*
X109465925Y-68192993D01*
X109500000Y-68065826D01*
X109500000Y-67934174D01*
X109465925Y-67807007D01*
X109433012Y-67750000D01*
X110499999Y-67750000D01*
X110499999Y-67350028D01*
X110499998Y-67350013D01*
X110489505Y-67247302D01*
X110434358Y-67080880D01*
X110434356Y-67080875D01*
X110342315Y-66931654D01*
X110218345Y-66807684D01*
X110063515Y-66712184D01*
X110016791Y-66660236D01*
X110005568Y-66591273D01*
X110033412Y-66527191D01*
X110040909Y-66518986D01*
X110180104Y-66379792D01*
X110305051Y-66207816D01*
X110401557Y-66018412D01*
X110467246Y-65816243D01*
X110500500Y-65606287D01*
X110500500Y-65393713D01*
X110467246Y-65183757D01*
X110401557Y-64981588D01*
X110305051Y-64792184D01*
X110305049Y-64792181D01*
X110305048Y-64792179D01*
X110180109Y-64620213D01*
X110029786Y-64469890D01*
X109857820Y-64344951D01*
X109668414Y-64248444D01*
X109668413Y-64248443D01*
X109668412Y-64248443D01*
X109466243Y-64182754D01*
X109466241Y-64182753D01*
X109466240Y-64182753D01*
X109304957Y-64157208D01*
X109256287Y-64149500D01*
X108743713Y-64149500D01*
X108695042Y-64157208D01*
X108533760Y-64182753D01*
X108331585Y-64248444D01*
X108142179Y-64344951D01*
X107970213Y-64469890D01*
X107819890Y-64620213D01*
X107694951Y-64792179D01*
X107598444Y-64981585D01*
X107532753Y-65183760D01*
X107499500Y-65393713D01*
X99500500Y-65393713D01*
X99467246Y-65183757D01*
X99401557Y-64981588D01*
X99305051Y-64792184D01*
X99305049Y-64792181D01*
X99305048Y-64792179D01*
X99180109Y-64620213D01*
X99029786Y-64469890D01*
X98857820Y-64344951D01*
X98668414Y-64248444D01*
X98668413Y-64248443D01*
X98668412Y-64248443D01*
X98466243Y-64182754D01*
X98466241Y-64182753D01*
X98466240Y-64182753D01*
X98304957Y-64157208D01*
X98256287Y-64149500D01*
X97743713Y-64149500D01*
X97695042Y-64157208D01*
X97533760Y-64182753D01*
X97331585Y-64248444D01*
X97142179Y-64344951D01*
X96970213Y-64469890D01*
X96819890Y-64620213D01*
X96694951Y-64792179D01*
X96598444Y-64981585D01*
X96532753Y-65183760D01*
X96499500Y-65393713D01*
X88500500Y-65393713D01*
X88467246Y-65183757D01*
X88401557Y-64981588D01*
X88305051Y-64792184D01*
X88305049Y-64792181D01*
X88305048Y-64792179D01*
X88180109Y-64620213D01*
X88029786Y-64469890D01*
X87857820Y-64344951D01*
X87668414Y-64248444D01*
X87668413Y-64248443D01*
X87668412Y-64248443D01*
X87466243Y-64182754D01*
X87466241Y-64182753D01*
X87466240Y-64182753D01*
X87304957Y-64157208D01*
X87256287Y-64149500D01*
X86743713Y-64149500D01*
X86695042Y-64157208D01*
X86533760Y-64182753D01*
X86331585Y-64248444D01*
X86142179Y-64344951D01*
X85970213Y-64469890D01*
X85819890Y-64620213D01*
X85694951Y-64792179D01*
X85598444Y-64981585D01*
X85532753Y-65183760D01*
X85499500Y-65393713D01*
X77500500Y-65393713D01*
X77467246Y-65183757D01*
X77401557Y-64981588D01*
X77305051Y-64792184D01*
X77305049Y-64792181D01*
X77305048Y-64792179D01*
X77180109Y-64620213D01*
X77029786Y-64469890D01*
X76857820Y-64344951D01*
X76668414Y-64248444D01*
X76668413Y-64248443D01*
X76668412Y-64248443D01*
X76466243Y-64182754D01*
X76466241Y-64182753D01*
X76466240Y-64182753D01*
X76304957Y-64157208D01*
X76256287Y-64149500D01*
X75743713Y-64149500D01*
X75695042Y-64157208D01*
X75533760Y-64182753D01*
X75331585Y-64248444D01*
X75142179Y-64344951D01*
X74970213Y-64469890D01*
X74819890Y-64620213D01*
X74694951Y-64792179D01*
X74598444Y-64981585D01*
X74532753Y-65183760D01*
X74499500Y-65393713D01*
X66500500Y-65393713D01*
X66467246Y-65183757D01*
X66401557Y-64981588D01*
X66305051Y-64792184D01*
X66305049Y-64792181D01*
X66305048Y-64792179D01*
X66180109Y-64620213D01*
X66029786Y-64469890D01*
X65857820Y-64344951D01*
X65668414Y-64248444D01*
X65668413Y-64248443D01*
X65668412Y-64248443D01*
X65466243Y-64182754D01*
X65466241Y-64182753D01*
X65466240Y-64182753D01*
X65304957Y-64157208D01*
X65256287Y-64149500D01*
X64743713Y-64149500D01*
X64695042Y-64157208D01*
X64533760Y-64182753D01*
X64331585Y-64248444D01*
X64142179Y-64344951D01*
X63970213Y-64469890D01*
X63819890Y-64620213D01*
X63694951Y-64792179D01*
X63598444Y-64981585D01*
X63532753Y-65183760D01*
X63499500Y-65393713D01*
X55500500Y-65393713D01*
X55467246Y-65183757D01*
X55401557Y-64981588D01*
X55305051Y-64792184D01*
X55305049Y-64792181D01*
X55305048Y-64792179D01*
X55180109Y-64620213D01*
X55029786Y-64469890D01*
X54857820Y-64344951D01*
X54668414Y-64248444D01*
X54668413Y-64248443D01*
X54668412Y-64248443D01*
X54466243Y-64182754D01*
X54466241Y-64182753D01*
X54466240Y-64182753D01*
X54304957Y-64157208D01*
X54256287Y-64149500D01*
X53743713Y-64149500D01*
X53695042Y-64157208D01*
X53533760Y-64182753D01*
X53331585Y-64248444D01*
X53142179Y-64344951D01*
X52970213Y-64469890D01*
X52819890Y-64620213D01*
X52694951Y-64792179D01*
X52598444Y-64981585D01*
X52532753Y-65183760D01*
X52499500Y-65393713D01*
X44500500Y-65393713D01*
X44467246Y-65183757D01*
X44401557Y-64981588D01*
X44305051Y-64792184D01*
X44305049Y-64792181D01*
X44305048Y-64792179D01*
X44180109Y-64620213D01*
X44029786Y-64469890D01*
X43857820Y-64344951D01*
X43668414Y-64248444D01*
X43668413Y-64248443D01*
X43668412Y-64248443D01*
X43466243Y-64182754D01*
X43466241Y-64182753D01*
X43466240Y-64182753D01*
X43304957Y-64157208D01*
X43256287Y-64149500D01*
X42743713Y-64149500D01*
X42695042Y-64157208D01*
X42533760Y-64182753D01*
X42331585Y-64248444D01*
X42142179Y-64344951D01*
X41970213Y-64469890D01*
X41819890Y-64620213D01*
X41694951Y-64792179D01*
X41598444Y-64981585D01*
X41532753Y-65183760D01*
X41499500Y-65393713D01*
X33500500Y-65393713D01*
X33467246Y-65183757D01*
X33401557Y-64981588D01*
X33305051Y-64792184D01*
X33305049Y-64792181D01*
X33305048Y-64792179D01*
X33180109Y-64620213D01*
X33029786Y-64469890D01*
X32857820Y-64344951D01*
X32668414Y-64248444D01*
X32668413Y-64248443D01*
X32668412Y-64248443D01*
X32466243Y-64182754D01*
X32466241Y-64182753D01*
X32466240Y-64182753D01*
X32304957Y-64157208D01*
X32256287Y-64149500D01*
X31743713Y-64149500D01*
X31695042Y-64157208D01*
X31533760Y-64182753D01*
X31331585Y-64248444D01*
X31142179Y-64344951D01*
X30970213Y-64469890D01*
X30819890Y-64620213D01*
X30694951Y-64792179D01*
X30598444Y-64981585D01*
X30532753Y-65183760D01*
X30499500Y-65393713D01*
X12500500Y-65393713D01*
X12500500Y-61699999D01*
X16494696Y-61699999D01*
X16494696Y-61700000D01*
X16513898Y-62066405D01*
X16571294Y-62428788D01*
X16571294Y-62428790D01*
X16666260Y-62783206D01*
X16797746Y-63125739D01*
X16964320Y-63452656D01*
X17164147Y-63760364D01*
X17164149Y-63760366D01*
X17395051Y-64045506D01*
X17654494Y-64304949D01*
X17813311Y-64433557D01*
X17939635Y-64535852D01*
X18247343Y-64735679D01*
X18247348Y-64735682D01*
X18574264Y-64902255D01*
X18916801Y-65033742D01*
X19271206Y-65128705D01*
X19633596Y-65186102D01*
X19979734Y-65204241D01*
X19999999Y-65205304D01*
X20000000Y-65205304D01*
X20000001Y-65205304D01*
X20019203Y-65204297D01*
X20366404Y-65186102D01*
X20728794Y-65128705D01*
X21083199Y-65033742D01*
X21425736Y-64902255D01*
X21752652Y-64735682D01*
X22060366Y-64535851D01*
X22345506Y-64304949D01*
X22604949Y-64045506D01*
X22835851Y-63760366D01*
X23035682Y-63452652D01*
X23202255Y-63125736D01*
X23333742Y-62783199D01*
X23428705Y-62428794D01*
X23486102Y-62066404D01*
X23505304Y-61700000D01*
X23486102Y-61333596D01*
X23428705Y-60971206D01*
X23333742Y-60616801D01*
X23202255Y-60274264D01*
X23035682Y-59947348D01*
X22835851Y-59639634D01*
X22604949Y-59354494D01*
X22345506Y-59095051D01*
X22060366Y-58864149D01*
X22060364Y-58864147D01*
X21752656Y-58664320D01*
X21425739Y-58497746D01*
X21083206Y-58366260D01*
X21083199Y-58366258D01*
X20728794Y-58271295D01*
X20728790Y-58271294D01*
X20728789Y-58271294D01*
X20575231Y-58246973D01*
X20512096Y-58217044D01*
X20475165Y-58157732D01*
X20476163Y-58087870D01*
X20514773Y-58029637D01*
X20578736Y-58001523D01*
X20594629Y-58000500D01*
X21571448Y-58000500D01*
X21785428Y-57985196D01*
X22065046Y-57924369D01*
X22333161Y-57824367D01*
X22584315Y-57687226D01*
X22813395Y-57515739D01*
X23015739Y-57313395D01*
X23187226Y-57084315D01*
X23324367Y-56833161D01*
X23424369Y-56565046D01*
X23485196Y-56285428D01*
X23500500Y-56071448D01*
X23500500Y-52928552D01*
X23485196Y-52714572D01*
X23424369Y-52434954D01*
X23324367Y-52166839D01*
X23187226Y-51915685D01*
X23187224Y-51915682D01*
X23015745Y-51686612D01*
X23015729Y-51686594D01*
X22813405Y-51484270D01*
X22813387Y-51484254D01*
X22584317Y-51312775D01*
X22584309Y-51312770D01*
X22333166Y-51175635D01*
X22333167Y-51175635D01*
X22225915Y-51135632D01*
X22065046Y-51075631D01*
X22065043Y-51075630D01*
X22065037Y-51075628D01*
X21785433Y-51014804D01*
X21571450Y-50999500D01*
X21571448Y-50999500D01*
X18428552Y-50999500D01*
X18428549Y-50999500D01*
X18214566Y-51014804D01*
X17934962Y-51075628D01*
X17666833Y-51175635D01*
X17415690Y-51312770D01*
X17415682Y-51312775D01*
X17186612Y-51484254D01*
X17186594Y-51484270D01*
X16984270Y-51686594D01*
X16984254Y-51686612D01*
X16812775Y-51915682D01*
X16812770Y-51915690D01*
X16675635Y-52166833D01*
X16575628Y-52434962D01*
X16514804Y-52714566D01*
X16499500Y-52928549D01*
X16499500Y-56071450D01*
X16514804Y-56285433D01*
X16575628Y-56565037D01*
X16675635Y-56833166D01*
X16812770Y-57084309D01*
X16812775Y-57084317D01*
X16984254Y-57313387D01*
X16984270Y-57313405D01*
X17186594Y-57515729D01*
X17186612Y-57515745D01*
X17415682Y-57687224D01*
X17415690Y-57687229D01*
X17666833Y-57824364D01*
X17666832Y-57824364D01*
X17666836Y-57824365D01*
X17666839Y-57824367D01*
X17934954Y-57924369D01*
X17934960Y-57924370D01*
X17934962Y-57924371D01*
X18214566Y-57985195D01*
X18214568Y-57985195D01*
X18214572Y-57985196D01*
X18428552Y-58000500D01*
X19405371Y-58000500D01*
X19472410Y-58020185D01*
X19518165Y-58072989D01*
X19528109Y-58142147D01*
X19499084Y-58205703D01*
X19440306Y-58243477D01*
X19424769Y-58246973D01*
X19271211Y-58271294D01*
X19271209Y-58271294D01*
X18916793Y-58366260D01*
X18574260Y-58497746D01*
X18247343Y-58664320D01*
X17939635Y-58864147D01*
X17654498Y-59095047D01*
X17654490Y-59095054D01*
X17395054Y-59354490D01*
X17395047Y-59354498D01*
X17164147Y-59639635D01*
X16964320Y-59947343D01*
X16797746Y-60274260D01*
X16666260Y-60616793D01*
X16571294Y-60971209D01*
X16571294Y-60971211D01*
X16513898Y-61333594D01*
X16494696Y-61699999D01*
X12500500Y-61699999D01*
X12500500Y-43077080D01*
X21478556Y-43077080D01*
X21478556Y-45281015D01*
X21478557Y-45281021D01*
X21484964Y-45340628D01*
X21535258Y-45475473D01*
X21535262Y-45475480D01*
X21621508Y-45590689D01*
X21621511Y-45590692D01*
X21736720Y-45676938D01*
X21736727Y-45676942D01*
X21871573Y-45727236D01*
X21871572Y-45727236D01*
X21878500Y-45727980D01*
X21931183Y-45733645D01*
X24135128Y-45733644D01*
X24194739Y-45727236D01*
X24329587Y-45676941D01*
X24444802Y-45590691D01*
X24531052Y-45475476D01*
X24581347Y-45340628D01*
X24587756Y-45281018D01*
X24587755Y-44179045D01*
X24877349Y-44179045D01*
X24896548Y-44422993D01*
X24953671Y-44660928D01*
X24953671Y-44660929D01*
X25047311Y-44886997D01*
X25047313Y-44887000D01*
X25175165Y-45095635D01*
X25175166Y-45095638D01*
X25175169Y-45095641D01*
X25334089Y-45281712D01*
X25403071Y-45340628D01*
X25520162Y-45440634D01*
X25520165Y-45440635D01*
X25728800Y-45568487D01*
X25728803Y-45568489D01*
X25954872Y-45662129D01*
X26016569Y-45676941D01*
X26192811Y-45719253D01*
X26436756Y-45738452D01*
X26680701Y-45719253D01*
X26918639Y-45662129D01*
X26918640Y-45662129D01*
X27144708Y-45568489D01*
X27144709Y-45568488D01*
X27144712Y-45568487D01*
X27353352Y-45440632D01*
X27539423Y-45281712D01*
X27698343Y-45095641D01*
X27826198Y-44887001D01*
X27919840Y-44660928D01*
X27976964Y-44422990D01*
X27996163Y-44179045D01*
X27976964Y-43935100D01*
X27919840Y-43697162D01*
X27919840Y-43697161D01*
X27919840Y-43697160D01*
X27826200Y-43471092D01*
X27826198Y-43471089D01*
X27791391Y-43414290D01*
X27698345Y-43262453D01*
X27698345Y-43262451D01*
X27657383Y-43214491D01*
X27539423Y-43076378D01*
X27416401Y-42971307D01*
X27353349Y-42917455D01*
X27353346Y-42917454D01*
X27144711Y-42789602D01*
X27144708Y-42789600D01*
X26918639Y-42695960D01*
X26680704Y-42638837D01*
X26436756Y-42619638D01*
X26192807Y-42638837D01*
X25954872Y-42695960D01*
X25954871Y-42695960D01*
X25728803Y-42789600D01*
X25728800Y-42789602D01*
X25520165Y-42917454D01*
X25520162Y-42917455D01*
X25334089Y-43076378D01*
X25175166Y-43262451D01*
X25175165Y-43262454D01*
X25047313Y-43471089D01*
X25047311Y-43471092D01*
X24953671Y-43697160D01*
X24953671Y-43697161D01*
X24896548Y-43935096D01*
X24877349Y-44179045D01*
X24587755Y-44179045D01*
X24587755Y-43077073D01*
X24581347Y-43017462D01*
X24544046Y-42917454D01*
X24531053Y-42882616D01*
X24531049Y-42882609D01*
X24444803Y-42767400D01*
X24444800Y-42767397D01*
X24329591Y-42681151D01*
X24329584Y-42681147D01*
X24194738Y-42630853D01*
X24194739Y-42630853D01*
X24135139Y-42624446D01*
X24135137Y-42624445D01*
X24135129Y-42624445D01*
X24135120Y-42624445D01*
X21931185Y-42624445D01*
X21931179Y-42624446D01*
X21871572Y-42630853D01*
X21736727Y-42681147D01*
X21736720Y-42681151D01*
X21621511Y-42767397D01*
X21621508Y-42767400D01*
X21535262Y-42882609D01*
X21535258Y-42882616D01*
X21484964Y-43017462D01*
X21478557Y-43077061D01*
X21478557Y-43077068D01*
X21478556Y-43077080D01*
X12500500Y-43077080D01*
X12500500Y-38039999D01*
X13644341Y-38039999D01*
X13644341Y-38040000D01*
X13664936Y-38275403D01*
X13664938Y-38275413D01*
X13726094Y-38503655D01*
X13726096Y-38503659D01*
X13726097Y-38503663D01*
X13726359Y-38504224D01*
X13825965Y-38717830D01*
X13825967Y-38717834D01*
X13934281Y-38872521D01*
X13961505Y-38911401D01*
X14128599Y-39078495D01*
X14225384Y-39146265D01*
X14322165Y-39214032D01*
X14322167Y-39214033D01*
X14322170Y-39214035D01*
X14536337Y-39313903D01*
X14764592Y-39375063D01*
X14952918Y-39391539D01*
X14999999Y-39395659D01*
X15000000Y-39395659D01*
X15000001Y-39395659D01*
X15039234Y-39392226D01*
X15235408Y-39375063D01*
X15463663Y-39313903D01*
X15677830Y-39214035D01*
X15871401Y-39078495D01*
X16038495Y-38911401D01*
X16174035Y-38717830D01*
X16273903Y-38503663D01*
X16335063Y-38275408D01*
X16355659Y-38040000D01*
X16335063Y-37804592D01*
X16273903Y-37576337D01*
X16174035Y-37362171D01*
X16128924Y-37297746D01*
X16038496Y-37168600D01*
X15984703Y-37114807D01*
X15916567Y-37046671D01*
X15883084Y-36985351D01*
X15888068Y-36915659D01*
X15929939Y-36859725D01*
X15960915Y-36842810D01*
X16092331Y-36793796D01*
X16207546Y-36707546D01*
X16293796Y-36592331D01*
X16344091Y-36457483D01*
X16350500Y-36397873D01*
X16350499Y-34602128D01*
X16344091Y-34542517D01*
X16293796Y-34407669D01*
X16293795Y-34407668D01*
X16293793Y-34407664D01*
X16207547Y-34292455D01*
X16207544Y-34292452D01*
X16092335Y-34206206D01*
X16092328Y-34206202D01*
X15957482Y-34155908D01*
X15957483Y-34155908D01*
X15897883Y-34149501D01*
X15897881Y-34149500D01*
X15897873Y-34149500D01*
X15897864Y-34149500D01*
X14102129Y-34149500D01*
X14102123Y-34149501D01*
X14042516Y-34155908D01*
X13907671Y-34206202D01*
X13907664Y-34206206D01*
X13792455Y-34292452D01*
X13792452Y-34292455D01*
X13706206Y-34407664D01*
X13706202Y-34407671D01*
X13655908Y-34542517D01*
X13649501Y-34602116D01*
X13649501Y-34602123D01*
X13649500Y-34602135D01*
X13649500Y-36397870D01*
X13649501Y-36397876D01*
X13655908Y-36457483D01*
X13706202Y-36592328D01*
X13706206Y-36592335D01*
X13792452Y-36707544D01*
X13792455Y-36707547D01*
X13907664Y-36793793D01*
X13907671Y-36793797D01*
X14039081Y-36842810D01*
X14095015Y-36884681D01*
X14119432Y-36950145D01*
X14104580Y-37018418D01*
X14083430Y-37046673D01*
X13961503Y-37168600D01*
X13825965Y-37362169D01*
X13825964Y-37362171D01*
X13726098Y-37576335D01*
X13726094Y-37576344D01*
X13664938Y-37804586D01*
X13664936Y-37804596D01*
X13644341Y-38039999D01*
X12500500Y-38039999D01*
X12500500Y-27803046D01*
X18027656Y-27803046D01*
X18027656Y-36056806D01*
X18038452Y-36160717D01*
X18038453Y-36160722D01*
X18048931Y-36210604D01*
X18048932Y-36210610D01*
X18080866Y-36310103D01*
X18080866Y-36310104D01*
X18084133Y-36315350D01*
X18156917Y-36432241D01*
X18201913Y-36485693D01*
X18201914Y-36485694D01*
X18309294Y-36581459D01*
X18439306Y-36643092D01*
X18506058Y-36663732D01*
X18506065Y-36663733D01*
X18506072Y-36663735D01*
X18648157Y-36686238D01*
X18648158Y-36686238D01*
X18648164Y-36686239D01*
X23253830Y-36752034D01*
X43290614Y-37038273D01*
X43290625Y-37038273D01*
X43290626Y-37038272D01*
X43290630Y-37038273D01*
X43348294Y-37035802D01*
X43376423Y-37032981D01*
X43433432Y-37023952D01*
X43568241Y-36973670D01*
X43629564Y-36940185D01*
X43744745Y-36853962D01*
X43830969Y-36738780D01*
X43859659Y-36686239D01*
X43866577Y-36673570D01*
X43868282Y-36674501D01*
X43908749Y-36627733D01*
X43975775Y-36608001D01*
X44002221Y-36610835D01*
X44247722Y-36664240D01*
X44247724Y-36664240D01*
X44247728Y-36664241D01*
X44461708Y-36679545D01*
X45441727Y-36679545D01*
X45508766Y-36699230D01*
X45554521Y-36752034D01*
X45564465Y-36821192D01*
X45535440Y-36884748D01*
X45476662Y-36922522D01*
X45461125Y-36926018D01*
X45304471Y-36950829D01*
X45304469Y-36950829D01*
X44950104Y-37045781D01*
X44607620Y-37177249D01*
X44280750Y-37343799D01*
X43973080Y-37543602D01*
X43740005Y-37732341D01*
X43740005Y-37732342D01*
X44628486Y-38620823D01*
X44546445Y-38683776D01*
X44337887Y-38892334D01*
X44274934Y-38974375D01*
X43386453Y-38085894D01*
X43386452Y-38085894D01*
X43197713Y-38318969D01*
X42997910Y-38626639D01*
X42831360Y-38953509D01*
X42699892Y-39295993D01*
X42604940Y-39650358D01*
X42604940Y-39650360D01*
X42547553Y-40012691D01*
X42528353Y-40379044D01*
X42528353Y-40379045D01*
X42547553Y-40745398D01*
X42604940Y-41107729D01*
X42604940Y-41107731D01*
X42699892Y-41462096D01*
X42831360Y-41804580D01*
X42997910Y-42131451D01*
X43197709Y-42439115D01*
X43386453Y-42672193D01*
X44274933Y-41783713D01*
X44337887Y-41865756D01*
X44546445Y-42074314D01*
X44628486Y-42137266D01*
X43740006Y-43025746D01*
X43973085Y-43214491D01*
X44280749Y-43414290D01*
X44607620Y-43580840D01*
X44950104Y-43712308D01*
X45304470Y-43807260D01*
X45666802Y-43864647D01*
X46033155Y-43883848D01*
X46033157Y-43883848D01*
X46399509Y-43864647D01*
X46761840Y-43807260D01*
X46761842Y-43807260D01*
X47116207Y-43712308D01*
X47458691Y-43580840D01*
X47785562Y-43414290D01*
X48093220Y-43214495D01*
X48326304Y-43025746D01*
X47437825Y-42137267D01*
X47519867Y-42074314D01*
X47728425Y-41865756D01*
X47791378Y-41783714D01*
X48679857Y-42672193D01*
X48868606Y-42439109D01*
X49068401Y-42131451D01*
X49234951Y-41804580D01*
X49366419Y-41462096D01*
X49461371Y-41107731D01*
X49461371Y-41107729D01*
X49518758Y-40745398D01*
X49531620Y-40499999D01*
X56994696Y-40499999D01*
X56994696Y-40500000D01*
X57013898Y-40866405D01*
X57071294Y-41228788D01*
X57071294Y-41228790D01*
X57166260Y-41583206D01*
X57297746Y-41925739D01*
X57464320Y-42252656D01*
X57664147Y-42560364D01*
X57831801Y-42767399D01*
X57895051Y-42845506D01*
X58154494Y-43104949D01*
X58154498Y-43104952D01*
X58439635Y-43335852D01*
X58747343Y-43535679D01*
X58747348Y-43535682D01*
X59048855Y-43689308D01*
X59064266Y-43697161D01*
X59074264Y-43702255D01*
X59416801Y-43833742D01*
X59771206Y-43928705D01*
X60133596Y-43986102D01*
X60479734Y-44004241D01*
X60499999Y-44005304D01*
X60500000Y-44005304D01*
X60500001Y-44005304D01*
X60519203Y-44004297D01*
X60866404Y-43986102D01*
X61228794Y-43928705D01*
X61583199Y-43833742D01*
X61925736Y-43702255D01*
X62252652Y-43535682D01*
X62560366Y-43335851D01*
X62845506Y-43104949D01*
X63104949Y-42845506D01*
X63335851Y-42560366D01*
X63535682Y-42252652D01*
X63702255Y-41925736D01*
X63833742Y-41583199D01*
X63928705Y-41228794D01*
X63986102Y-40866404D01*
X64005304Y-40500000D01*
X64005304Y-40499999D01*
X70994696Y-40499999D01*
X70994696Y-40500000D01*
X71013898Y-40866405D01*
X71071294Y-41228788D01*
X71071294Y-41228790D01*
X71166260Y-41583206D01*
X71297746Y-41925739D01*
X71464320Y-42252656D01*
X71664147Y-42560364D01*
X71831801Y-42767399D01*
X71895051Y-42845506D01*
X72154494Y-43104949D01*
X72154498Y-43104952D01*
X72439635Y-43335852D01*
X72747343Y-43535679D01*
X72747348Y-43535682D01*
X73048855Y-43689308D01*
X73064266Y-43697161D01*
X73074264Y-43702255D01*
X73416801Y-43833742D01*
X73771206Y-43928705D01*
X74133596Y-43986102D01*
X74479734Y-44004241D01*
X74499999Y-44005304D01*
X74500000Y-44005304D01*
X74500001Y-44005304D01*
X74519203Y-44004297D01*
X74866404Y-43986102D01*
X75228794Y-43928705D01*
X75583199Y-43833742D01*
X75925736Y-43702255D01*
X76252652Y-43535682D01*
X76560366Y-43335851D01*
X76845506Y-43104949D01*
X77104949Y-42845506D01*
X77335851Y-42560366D01*
X77535682Y-42252652D01*
X77702255Y-41925736D01*
X77833742Y-41583199D01*
X77928705Y-41228794D01*
X77986102Y-40866404D01*
X78005304Y-40500000D01*
X78005304Y-40499999D01*
X84494696Y-40499999D01*
X84494696Y-40500000D01*
X84513898Y-40866405D01*
X84571294Y-41228788D01*
X84571294Y-41228790D01*
X84666260Y-41583206D01*
X84797746Y-41925739D01*
X84964320Y-42252656D01*
X85164147Y-42560364D01*
X85331801Y-42767399D01*
X85395051Y-42845506D01*
X85654494Y-43104949D01*
X85654498Y-43104952D01*
X85939635Y-43335852D01*
X86247343Y-43535679D01*
X86247348Y-43535682D01*
X86548855Y-43689308D01*
X86564266Y-43697161D01*
X86574264Y-43702255D01*
X86916801Y-43833742D01*
X87271206Y-43928705D01*
X87633596Y-43986102D01*
X87979734Y-44004241D01*
X87999999Y-44005304D01*
X88000000Y-44005304D01*
X88000001Y-44005304D01*
X88019203Y-44004297D01*
X88366404Y-43986102D01*
X88728794Y-43928705D01*
X89083199Y-43833742D01*
X89425736Y-43702255D01*
X89752652Y-43535682D01*
X90060366Y-43335851D01*
X90345506Y-43104949D01*
X90604949Y-42845506D01*
X90835851Y-42560366D01*
X91035682Y-42252652D01*
X91202255Y-41925736D01*
X91333742Y-41583199D01*
X91428705Y-41228794D01*
X91486102Y-40866404D01*
X91505304Y-40500000D01*
X91505304Y-40499999D01*
X97994696Y-40499999D01*
X97994696Y-40500000D01*
X98013898Y-40866405D01*
X98071294Y-41228788D01*
X98071294Y-41228790D01*
X98166260Y-41583206D01*
X98297746Y-41925739D01*
X98464320Y-42252656D01*
X98664147Y-42560364D01*
X98831801Y-42767399D01*
X98895051Y-42845506D01*
X99154494Y-43104949D01*
X99154498Y-43104952D01*
X99439635Y-43335852D01*
X99747343Y-43535679D01*
X99747348Y-43535682D01*
X100048855Y-43689308D01*
X100064266Y-43697161D01*
X100074264Y-43702255D01*
X100416801Y-43833742D01*
X100771206Y-43928705D01*
X101133596Y-43986102D01*
X101479734Y-44004241D01*
X101499999Y-44005304D01*
X101500000Y-44005304D01*
X101500001Y-44005304D01*
X101519203Y-44004297D01*
X101866404Y-43986102D01*
X102228794Y-43928705D01*
X102583199Y-43833742D01*
X102925736Y-43702255D01*
X103252652Y-43535682D01*
X103560366Y-43335851D01*
X103845506Y-43104949D01*
X104104949Y-42845506D01*
X104335851Y-42560366D01*
X104535682Y-42252652D01*
X104702255Y-41925736D01*
X104833742Y-41583199D01*
X104928705Y-41228794D01*
X104986102Y-40866404D01*
X105005304Y-40500000D01*
X104986102Y-40133596D01*
X104928705Y-39771206D01*
X104833742Y-39416801D01*
X104702255Y-39074264D01*
X104535682Y-38747348D01*
X104535679Y-38747343D01*
X104335852Y-38439635D01*
X104104952Y-38154498D01*
X104104949Y-38154494D01*
X103845506Y-37895051D01*
X103813010Y-37868736D01*
X103560364Y-37664147D01*
X103252656Y-37464320D01*
X102925739Y-37297746D01*
X102583206Y-37166260D01*
X102432488Y-37125875D01*
X102228794Y-37071295D01*
X102228790Y-37071294D01*
X102228789Y-37071294D01*
X102095510Y-37050185D01*
X102072073Y-37046472D01*
X102008939Y-37016544D01*
X101972008Y-36957232D01*
X101973006Y-36887370D01*
X102011616Y-36829137D01*
X102075579Y-36801023D01*
X102091472Y-36800000D01*
X103071434Y-36800000D01*
X103071436Y-36799999D01*
X103285362Y-36784699D01*
X103564895Y-36723890D01*
X103832958Y-36623908D01*
X104084038Y-36486808D01*
X104084039Y-36486807D01*
X104313065Y-36315360D01*
X104313077Y-36315350D01*
X104515350Y-36113077D01*
X104515360Y-36113065D01*
X104686807Y-35884039D01*
X104686808Y-35884038D01*
X104823908Y-35632958D01*
X104923890Y-35364895D01*
X104984699Y-35085362D01*
X104999999Y-34871436D01*
X105000000Y-34871434D01*
X105000000Y-33550000D01*
X103736502Y-33550000D01*
X103750000Y-33447473D01*
X103750000Y-33152527D01*
X103736502Y-33050000D01*
X105000000Y-33050000D01*
X105000000Y-31728566D01*
X104999999Y-31728563D01*
X104984699Y-31514637D01*
X104923890Y-31235104D01*
X104823908Y-30967041D01*
X104686808Y-30715961D01*
X104686807Y-30715960D01*
X104515360Y-30486934D01*
X104515350Y-30486922D01*
X104313077Y-30284649D01*
X104313065Y-30284639D01*
X104084039Y-30113192D01*
X104084038Y-30113191D01*
X103832957Y-29976091D01*
X103832958Y-29976091D01*
X103564895Y-29876109D01*
X103285362Y-29815300D01*
X103071436Y-29800000D01*
X101750000Y-29800000D01*
X101750000Y-31063497D01*
X101647473Y-31050000D01*
X101352527Y-31050000D01*
X101250000Y-31063497D01*
X101250000Y-29800000D01*
X99928563Y-29800000D01*
X99714637Y-29815300D01*
X99435104Y-29876109D01*
X99167041Y-29976091D01*
X98915961Y-30113191D01*
X98915960Y-30113192D01*
X98686934Y-30284639D01*
X98686922Y-30284649D01*
X98484649Y-30486922D01*
X98484639Y-30486934D01*
X98313192Y-30715960D01*
X98313191Y-30715961D01*
X98176091Y-30967041D01*
X98076109Y-31235104D01*
X98015300Y-31514637D01*
X98000000Y-31728563D01*
X98000000Y-33050000D01*
X99263498Y-33050000D01*
X99250000Y-33152527D01*
X99250000Y-33447473D01*
X99263498Y-33550000D01*
X98000000Y-33550000D01*
X98000000Y-34871436D01*
X98015300Y-35085362D01*
X98076109Y-35364895D01*
X98176091Y-35632958D01*
X98313191Y-35884038D01*
X98313192Y-35884039D01*
X98484639Y-36113065D01*
X98484649Y-36113077D01*
X98686922Y-36315350D01*
X98686934Y-36315360D01*
X98915960Y-36486807D01*
X98915961Y-36486808D01*
X99167042Y-36623908D01*
X99167041Y-36623908D01*
X99435104Y-36723890D01*
X99714637Y-36784699D01*
X99928563Y-36799999D01*
X99928566Y-36800000D01*
X100908528Y-36800000D01*
X100975567Y-36819685D01*
X101021322Y-36872489D01*
X101031266Y-36941647D01*
X101002241Y-37005203D01*
X100943463Y-37042977D01*
X100927926Y-37046472D01*
X100904489Y-37050185D01*
X100771211Y-37071294D01*
X100771209Y-37071294D01*
X100416793Y-37166260D01*
X100074260Y-37297746D01*
X99747343Y-37464320D01*
X99439635Y-37664147D01*
X99154498Y-37895047D01*
X99154490Y-37895054D01*
X98895054Y-38154490D01*
X98895047Y-38154498D01*
X98664147Y-38439635D01*
X98464320Y-38747343D01*
X98297746Y-39074260D01*
X98166260Y-39416793D01*
X98071294Y-39771209D01*
X98071294Y-39771211D01*
X98013898Y-40133594D01*
X97994696Y-40499999D01*
X91505304Y-40499999D01*
X91486102Y-40133596D01*
X91428705Y-39771206D01*
X91333742Y-39416801D01*
X91202255Y-39074264D01*
X91035682Y-38747348D01*
X91035679Y-38747343D01*
X90835852Y-38439635D01*
X90604952Y-38154498D01*
X90604949Y-38154494D01*
X90345506Y-37895051D01*
X90313010Y-37868736D01*
X90060364Y-37664147D01*
X89752656Y-37464320D01*
X89425739Y-37297746D01*
X89083206Y-37166260D01*
X88932488Y-37125875D01*
X88728794Y-37071295D01*
X88728790Y-37071294D01*
X88728789Y-37071294D01*
X88595510Y-37050185D01*
X88572073Y-37046472D01*
X88508939Y-37016544D01*
X88472008Y-36957232D01*
X88473006Y-36887370D01*
X88511616Y-36829137D01*
X88575579Y-36801023D01*
X88591472Y-36800000D01*
X89571434Y-36800000D01*
X89571436Y-36799999D01*
X89785362Y-36784699D01*
X90064895Y-36723890D01*
X90332958Y-36623908D01*
X90584038Y-36486808D01*
X90584039Y-36486807D01*
X90813065Y-36315360D01*
X90813077Y-36315350D01*
X91015350Y-36113077D01*
X91015360Y-36113065D01*
X91186807Y-35884039D01*
X91186808Y-35884038D01*
X91323908Y-35632958D01*
X91423890Y-35364895D01*
X91484699Y-35085362D01*
X91499999Y-34871436D01*
X91500000Y-34871434D01*
X91500000Y-33550000D01*
X90236502Y-33550000D01*
X90250000Y-33447473D01*
X90250000Y-33152527D01*
X90236502Y-33050000D01*
X91500000Y-33050000D01*
X91500000Y-31728566D01*
X91499999Y-31728563D01*
X91484699Y-31514637D01*
X91423890Y-31235104D01*
X91323908Y-30967041D01*
X91186808Y-30715961D01*
X91186807Y-30715960D01*
X91015360Y-30486934D01*
X91015350Y-30486922D01*
X90813077Y-30284649D01*
X90813065Y-30284639D01*
X90584039Y-30113192D01*
X90584038Y-30113191D01*
X90332957Y-29976091D01*
X90332958Y-29976091D01*
X90064895Y-29876109D01*
X89785362Y-29815300D01*
X89571436Y-29800000D01*
X88250000Y-29800000D01*
X88250000Y-31063497D01*
X88147473Y-31050000D01*
X87852527Y-31050000D01*
X87750000Y-31063497D01*
X87750000Y-29800000D01*
X86428563Y-29800000D01*
X86214637Y-29815300D01*
X85935104Y-29876109D01*
X85667041Y-29976091D01*
X85415961Y-30113191D01*
X85415960Y-30113192D01*
X85186934Y-30284639D01*
X85186922Y-30284649D01*
X84984649Y-30486922D01*
X84984639Y-30486934D01*
X84813192Y-30715960D01*
X84813191Y-30715961D01*
X84676091Y-30967041D01*
X84576109Y-31235104D01*
X84515300Y-31514637D01*
X84500000Y-31728563D01*
X84500000Y-33050000D01*
X85763498Y-33050000D01*
X85750000Y-33152527D01*
X85750000Y-33447473D01*
X85763498Y-33550000D01*
X84500000Y-33550000D01*
X84500000Y-34871436D01*
X84515300Y-35085362D01*
X84576109Y-35364895D01*
X84676091Y-35632958D01*
X84813191Y-35884038D01*
X84813192Y-35884039D01*
X84984639Y-36113065D01*
X84984649Y-36113077D01*
X85186922Y-36315350D01*
X85186934Y-36315360D01*
X85415960Y-36486807D01*
X85415961Y-36486808D01*
X85667042Y-36623908D01*
X85667041Y-36623908D01*
X85935104Y-36723890D01*
X86214637Y-36784699D01*
X86428563Y-36799999D01*
X86428566Y-36800000D01*
X87408528Y-36800000D01*
X87475567Y-36819685D01*
X87521322Y-36872489D01*
X87531266Y-36941647D01*
X87502241Y-37005203D01*
X87443463Y-37042977D01*
X87427926Y-37046472D01*
X87404489Y-37050185D01*
X87271211Y-37071294D01*
X87271209Y-37071294D01*
X86916793Y-37166260D01*
X86574260Y-37297746D01*
X86247343Y-37464320D01*
X85939635Y-37664147D01*
X85654498Y-37895047D01*
X85654490Y-37895054D01*
X85395054Y-38154490D01*
X85395047Y-38154498D01*
X85164147Y-38439635D01*
X84964320Y-38747343D01*
X84797746Y-39074260D01*
X84666260Y-39416793D01*
X84571294Y-39771209D01*
X84571294Y-39771211D01*
X84513898Y-40133594D01*
X84494696Y-40499999D01*
X78005304Y-40499999D01*
X77986102Y-40133596D01*
X77928705Y-39771206D01*
X77833742Y-39416801D01*
X77702255Y-39074264D01*
X77535682Y-38747348D01*
X77535679Y-38747343D01*
X77335852Y-38439635D01*
X77104952Y-38154498D01*
X77104949Y-38154494D01*
X76845506Y-37895051D01*
X76813010Y-37868736D01*
X76560364Y-37664147D01*
X76252656Y-37464320D01*
X75925739Y-37297746D01*
X75583206Y-37166260D01*
X75432488Y-37125875D01*
X75228794Y-37071295D01*
X75228790Y-37071294D01*
X75228789Y-37071294D01*
X75095510Y-37050185D01*
X75072073Y-37046472D01*
X75008939Y-37016544D01*
X74972008Y-36957232D01*
X74973006Y-36887370D01*
X75011616Y-36829137D01*
X75075579Y-36801023D01*
X75091472Y-36800000D01*
X76071434Y-36800000D01*
X76071436Y-36799999D01*
X76285362Y-36784699D01*
X76564895Y-36723890D01*
X76832958Y-36623908D01*
X77084038Y-36486808D01*
X77084039Y-36486807D01*
X77313065Y-36315360D01*
X77313077Y-36315350D01*
X77515350Y-36113077D01*
X77515360Y-36113065D01*
X77686807Y-35884039D01*
X77686808Y-35884038D01*
X77823908Y-35632958D01*
X77923890Y-35364895D01*
X77984699Y-35085362D01*
X77999999Y-34871436D01*
X78000000Y-34871434D01*
X78000000Y-33550000D01*
X76736502Y-33550000D01*
X76750000Y-33447473D01*
X76750000Y-33152527D01*
X76736502Y-33050000D01*
X78000000Y-33050000D01*
X78000000Y-31728566D01*
X77999999Y-31728563D01*
X77984699Y-31514637D01*
X77923890Y-31235104D01*
X77823908Y-30967041D01*
X77686808Y-30715961D01*
X77686807Y-30715960D01*
X77515360Y-30486934D01*
X77515350Y-30486922D01*
X77313077Y-30284649D01*
X77313065Y-30284639D01*
X77084039Y-30113192D01*
X77084038Y-30113191D01*
X76832957Y-29976091D01*
X76832958Y-29976091D01*
X76564895Y-29876109D01*
X76285362Y-29815300D01*
X76071436Y-29800000D01*
X74750000Y-29800000D01*
X74750000Y-31063497D01*
X74647473Y-31050000D01*
X74352527Y-31050000D01*
X74250000Y-31063497D01*
X74250000Y-29800000D01*
X72928563Y-29800000D01*
X72714637Y-29815300D01*
X72435104Y-29876109D01*
X72167041Y-29976091D01*
X71915961Y-30113191D01*
X71915960Y-30113192D01*
X71686934Y-30284639D01*
X71686922Y-30284649D01*
X71484649Y-30486922D01*
X71484639Y-30486934D01*
X71313192Y-30715960D01*
X71313191Y-30715961D01*
X71176091Y-30967041D01*
X71076109Y-31235104D01*
X71015300Y-31514637D01*
X71000000Y-31728563D01*
X71000000Y-33050000D01*
X72263498Y-33050000D01*
X72250000Y-33152527D01*
X72250000Y-33447473D01*
X72263498Y-33550000D01*
X71000000Y-33550000D01*
X71000000Y-34871436D01*
X71015300Y-35085362D01*
X71076109Y-35364895D01*
X71176091Y-35632958D01*
X71313191Y-35884038D01*
X71313192Y-35884039D01*
X71484639Y-36113065D01*
X71484649Y-36113077D01*
X71686922Y-36315350D01*
X71686934Y-36315360D01*
X71915960Y-36486807D01*
X71915961Y-36486808D01*
X72167042Y-36623908D01*
X72167041Y-36623908D01*
X72435104Y-36723890D01*
X72714637Y-36784699D01*
X72928563Y-36799999D01*
X72928566Y-36800000D01*
X73908528Y-36800000D01*
X73975567Y-36819685D01*
X74021322Y-36872489D01*
X74031266Y-36941647D01*
X74002241Y-37005203D01*
X73943463Y-37042977D01*
X73927926Y-37046472D01*
X73904489Y-37050185D01*
X73771211Y-37071294D01*
X73771209Y-37071294D01*
X73416793Y-37166260D01*
X73074260Y-37297746D01*
X72747343Y-37464320D01*
X72439635Y-37664147D01*
X72154498Y-37895047D01*
X72154490Y-37895054D01*
X71895054Y-38154490D01*
X71895047Y-38154498D01*
X71664147Y-38439635D01*
X71464320Y-38747343D01*
X71297746Y-39074260D01*
X71166260Y-39416793D01*
X71071294Y-39771209D01*
X71071294Y-39771211D01*
X71013898Y-40133594D01*
X70994696Y-40499999D01*
X64005304Y-40499999D01*
X63986102Y-40133596D01*
X63928705Y-39771206D01*
X63833742Y-39416801D01*
X63702255Y-39074264D01*
X63535682Y-38747348D01*
X63535679Y-38747343D01*
X63335852Y-38439635D01*
X63104952Y-38154498D01*
X63104949Y-38154494D01*
X62845506Y-37895051D01*
X62813010Y-37868736D01*
X62560364Y-37664147D01*
X62252656Y-37464320D01*
X61925739Y-37297746D01*
X61583206Y-37166260D01*
X61432488Y-37125875D01*
X61228794Y-37071295D01*
X61228790Y-37071294D01*
X61228789Y-37071294D01*
X61095510Y-37050185D01*
X61072073Y-37046472D01*
X61008939Y-37016544D01*
X60972008Y-36957232D01*
X60973006Y-36887370D01*
X61011616Y-36829137D01*
X61075579Y-36801023D01*
X61091472Y-36800000D01*
X62071434Y-36800000D01*
X62071436Y-36799999D01*
X62285362Y-36784699D01*
X62564895Y-36723890D01*
X62832958Y-36623908D01*
X63084038Y-36486808D01*
X63084039Y-36486807D01*
X63313065Y-36315360D01*
X63313077Y-36315350D01*
X63515350Y-36113077D01*
X63515360Y-36113065D01*
X63686807Y-35884039D01*
X63686808Y-35884038D01*
X63823908Y-35632958D01*
X63923890Y-35364895D01*
X63984699Y-35085362D01*
X63999999Y-34871436D01*
X64000000Y-34871434D01*
X64000000Y-33550000D01*
X62736502Y-33550000D01*
X62750000Y-33447473D01*
X62750000Y-33152527D01*
X62736502Y-33050000D01*
X64000000Y-33050000D01*
X64000000Y-31728566D01*
X63999999Y-31728563D01*
X63984699Y-31514637D01*
X63923890Y-31235104D01*
X63823908Y-30967041D01*
X63686808Y-30715961D01*
X63686807Y-30715960D01*
X63515360Y-30486934D01*
X63515350Y-30486922D01*
X63313077Y-30284649D01*
X63313065Y-30284639D01*
X63084039Y-30113192D01*
X63084038Y-30113191D01*
X62832957Y-29976091D01*
X62832958Y-29976091D01*
X62564895Y-29876109D01*
X62285362Y-29815300D01*
X62071436Y-29800000D01*
X60750000Y-29800000D01*
X60750000Y-31063497D01*
X60647473Y-31050000D01*
X60352527Y-31050000D01*
X60250000Y-31063497D01*
X60250000Y-29800000D01*
X58928563Y-29800000D01*
X58714637Y-29815300D01*
X58435104Y-29876109D01*
X58167041Y-29976091D01*
X57915961Y-30113191D01*
X57915960Y-30113192D01*
X57686934Y-30284639D01*
X57686922Y-30284649D01*
X57484649Y-30486922D01*
X57484639Y-30486934D01*
X57313192Y-30715960D01*
X57313191Y-30715961D01*
X57176091Y-30967041D01*
X57076109Y-31235104D01*
X57015300Y-31514637D01*
X57000000Y-31728563D01*
X57000000Y-33050000D01*
X58263498Y-33050000D01*
X58250000Y-33152527D01*
X58250000Y-33447473D01*
X58263498Y-33550000D01*
X57000000Y-33550000D01*
X57000000Y-34871436D01*
X57015300Y-35085362D01*
X57076109Y-35364895D01*
X57176091Y-35632958D01*
X57313191Y-35884038D01*
X57313192Y-35884039D01*
X57484639Y-36113065D01*
X57484649Y-36113077D01*
X57686922Y-36315350D01*
X57686934Y-36315360D01*
X57915960Y-36486807D01*
X57915961Y-36486808D01*
X58167042Y-36623908D01*
X58167041Y-36623908D01*
X58435104Y-36723890D01*
X58714637Y-36784699D01*
X58928563Y-36799999D01*
X58928566Y-36800000D01*
X59908528Y-36800000D01*
X59975567Y-36819685D01*
X60021322Y-36872489D01*
X60031266Y-36941647D01*
X60002241Y-37005203D01*
X59943463Y-37042977D01*
X59927926Y-37046472D01*
X59904489Y-37050185D01*
X59771211Y-37071294D01*
X59771209Y-37071294D01*
X59416793Y-37166260D01*
X59074260Y-37297746D01*
X58747343Y-37464320D01*
X58439635Y-37664147D01*
X58154498Y-37895047D01*
X58154490Y-37895054D01*
X57895054Y-38154490D01*
X57895047Y-38154498D01*
X57664147Y-38439635D01*
X57464320Y-38747343D01*
X57297746Y-39074260D01*
X57166260Y-39416793D01*
X57071294Y-39771209D01*
X57071294Y-39771211D01*
X57013898Y-40133594D01*
X56994696Y-40499999D01*
X49531620Y-40499999D01*
X49537959Y-40379045D01*
X49537959Y-40379044D01*
X49518758Y-40012691D01*
X49461371Y-39650360D01*
X49461371Y-39650358D01*
X49366419Y-39295993D01*
X49234951Y-38953509D01*
X49068401Y-38626639D01*
X48868602Y-38318974D01*
X48679857Y-38085895D01*
X47791377Y-38974374D01*
X47728425Y-38892334D01*
X47519867Y-38683776D01*
X47437825Y-38620822D01*
X48326305Y-37732342D01*
X48093226Y-37543598D01*
X47785562Y-37343799D01*
X47458691Y-37177249D01*
X47116207Y-37045781D01*
X46761841Y-36950829D01*
X46605187Y-36926018D01*
X46542053Y-36896089D01*
X46505121Y-36836778D01*
X46506119Y-36766915D01*
X46544729Y-36708682D01*
X46608692Y-36680568D01*
X46624585Y-36679545D01*
X47604604Y-36679545D01*
X47818584Y-36664241D01*
X47931837Y-36639604D01*
X48001528Y-36644588D01*
X48057461Y-36686459D01*
X48077658Y-36727534D01*
X48080756Y-36738671D01*
X48080824Y-36738780D01*
X48156808Y-36860810D01*
X48201804Y-36914262D01*
X48201805Y-36914263D01*
X48309185Y-37010028D01*
X48439197Y-37071661D01*
X48505949Y-37092301D01*
X48505956Y-37092302D01*
X48505963Y-37092304D01*
X48648048Y-37114807D01*
X48648049Y-37114807D01*
X48648055Y-37114808D01*
X53400164Y-37182696D01*
X53400174Y-37182695D01*
X53400176Y-37182695D01*
X53511298Y-37171951D01*
X53511298Y-37171950D01*
X53511308Y-37171950D01*
X53511317Y-37171947D01*
X53511324Y-37171947D01*
X53548869Y-37164059D01*
X53564590Y-37160757D01*
X53564599Y-37160753D01*
X53564607Y-37160752D01*
X53633738Y-37138016D01*
X53670660Y-37125874D01*
X53791699Y-37048086D01*
X53844503Y-37002331D01*
X53938723Y-36893597D01*
X53998494Y-36762720D01*
X54018179Y-36695681D01*
X54018180Y-36695677D01*
X54038656Y-36553261D01*
X54038656Y-27803045D01*
X54027103Y-27695589D01*
X54015897Y-27644078D01*
X54015793Y-27643767D01*
X53981772Y-27541547D01*
X53981769Y-27541541D01*
X53903984Y-27420507D01*
X53903981Y-27420502D01*
X53903976Y-27420496D01*
X53858232Y-27367704D01*
X53858228Y-27367701D01*
X53858226Y-27367698D01*
X53749492Y-27273478D01*
X53749489Y-27273476D01*
X53749487Y-27273475D01*
X53618621Y-27213709D01*
X53618616Y-27213707D01*
X53618615Y-27213707D01*
X53551576Y-27194022D01*
X53551578Y-27194022D01*
X53551573Y-27194021D01*
X53489503Y-27185097D01*
X53409156Y-27173545D01*
X18657156Y-27173545D01*
X18657147Y-27173545D01*
X18657146Y-27173546D01*
X18549705Y-27185097D01*
X18549693Y-27185099D01*
X18498183Y-27196305D01*
X18395658Y-27230428D01*
X18395652Y-27230431D01*
X18274618Y-27308216D01*
X18274607Y-27308224D01*
X18221815Y-27353968D01*
X18127589Y-27462709D01*
X18127586Y-27462713D01*
X18067820Y-27593579D01*
X18048132Y-27660627D01*
X18043105Y-27695594D01*
X18027658Y-27803035D01*
X18027656Y-27803046D01*
X12500500Y-27803046D01*
X12500500Y-17000000D01*
X12994675Y-17000000D01*
X13013962Y-17392591D01*
X13013962Y-17392597D01*
X13013963Y-17392599D01*
X13071637Y-17781406D01*
X13167143Y-18162684D01*
X13299561Y-18532770D01*
X13299562Y-18532772D01*
X13467620Y-18888100D01*
X13669692Y-19225236D01*
X13903846Y-19540956D01*
X14167807Y-19832192D01*
X14459043Y-20096153D01*
X14459049Y-20096158D01*
X14774761Y-20330306D01*
X14774763Y-20330307D01*
X15111899Y-20532379D01*
X15111902Y-20532380D01*
X15111903Y-20532381D01*
X15467228Y-20700438D01*
X15837316Y-20832857D01*
X16218600Y-20928364D01*
X16607409Y-20986038D01*
X17000000Y-21005325D01*
X17392591Y-20986038D01*
X17781400Y-20928364D01*
X18162684Y-20832857D01*
X18532772Y-20700438D01*
X18888097Y-20532381D01*
X19225239Y-20330306D01*
X19540951Y-20096158D01*
X19832192Y-19832192D01*
X20096158Y-19540951D01*
X20330306Y-19225239D01*
X20532381Y-18888097D01*
X20700438Y-18532772D01*
X20832857Y-18162684D01*
X20928364Y-17781400D01*
X20986038Y-17392591D01*
X21005325Y-17000000D01*
X102994675Y-17000000D01*
X103013962Y-17392591D01*
X103013962Y-17392597D01*
X103013963Y-17392599D01*
X103071637Y-17781406D01*
X103167143Y-18162684D01*
X103299561Y-18532770D01*
X103299562Y-18532772D01*
X103467620Y-18888100D01*
X103669692Y-19225236D01*
X103903846Y-19540956D01*
X104167807Y-19832192D01*
X104459043Y-20096153D01*
X104459049Y-20096158D01*
X104774761Y-20330306D01*
X104774763Y-20330307D01*
X105111899Y-20532379D01*
X105111902Y-20532380D01*
X105111903Y-20532381D01*
X105467228Y-20700438D01*
X105837316Y-20832857D01*
X106218600Y-20928364D01*
X106607409Y-20986038D01*
X107000000Y-21005325D01*
X107392591Y-20986038D01*
X107781400Y-20928364D01*
X108162684Y-20832857D01*
X108532772Y-20700438D01*
X108888097Y-20532381D01*
X109225239Y-20330306D01*
X109540951Y-20096158D01*
X109832192Y-19832192D01*
X110096158Y-19540951D01*
X110330306Y-19225239D01*
X110532381Y-18888097D01*
X110700438Y-18532772D01*
X110832857Y-18162684D01*
X110928364Y-17781400D01*
X110986038Y-17392591D01*
X111005325Y-17000000D01*
X110986038Y-16607409D01*
X110928364Y-16218600D01*
X110832857Y-15837316D01*
X110700438Y-15467228D01*
X110532381Y-15111903D01*
X110330306Y-14774761D01*
X110096158Y-14459049D01*
X110096153Y-14459043D01*
X109832192Y-14167807D01*
X109540956Y-13903846D01*
X109225236Y-13669692D01*
X108888100Y-13467620D01*
X108532772Y-13299562D01*
X108532770Y-13299561D01*
X108162684Y-13167143D01*
X107781406Y-13071637D01*
X107781401Y-13071636D01*
X107781400Y-13071636D01*
X107637256Y-13050254D01*
X107392599Y-13013963D01*
X107392597Y-13013962D01*
X107392591Y-13013962D01*
X107000000Y-12994675D01*
X106607409Y-13013962D01*
X106607403Y-13013962D01*
X106607400Y-13013963D01*
X106218593Y-13071637D01*
X105837315Y-13167143D01*
X105467229Y-13299561D01*
X105467227Y-13299562D01*
X105111899Y-13467620D01*
X104774763Y-13669692D01*
X104459043Y-13903846D01*
X104167807Y-14167807D01*
X103903846Y-14459043D01*
X103669692Y-14774763D01*
X103467620Y-15111899D01*
X103299562Y-15467227D01*
X103299561Y-15467229D01*
X103167143Y-15837315D01*
X103071637Y-16218593D01*
X103071636Y-16218600D01*
X103013962Y-16607409D01*
X102994675Y-17000000D01*
X21005325Y-17000000D01*
X20986038Y-16607409D01*
X20928364Y-16218600D01*
X20832857Y-15837316D01*
X20700438Y-15467228D01*
X20532381Y-15111903D01*
X20330306Y-14774761D01*
X20096158Y-14459049D01*
X20096153Y-14459043D01*
X19832192Y-14167807D01*
X19540956Y-13903846D01*
X19225236Y-13669692D01*
X18888100Y-13467620D01*
X18532772Y-13299562D01*
X18532770Y-13299561D01*
X18162684Y-13167143D01*
X17781406Y-13071637D01*
X17781401Y-13071636D01*
X17781400Y-13071636D01*
X17637256Y-13050254D01*
X17392599Y-13013963D01*
X17392597Y-13013962D01*
X17392591Y-13013962D01*
X17000000Y-12994675D01*
X16607409Y-13013962D01*
X16607403Y-13013962D01*
X16607400Y-13013963D01*
X16218593Y-13071637D01*
X15837315Y-13167143D01*
X15467229Y-13299561D01*
X15467227Y-13299562D01*
X15111899Y-13467620D01*
X14774763Y-13669692D01*
X14459043Y-13903846D01*
X14167807Y-14167807D01*
X13903846Y-14459043D01*
X13669692Y-14774763D01*
X13467620Y-15111899D01*
X13299562Y-15467227D01*
X13299561Y-15467229D01*
X13167143Y-15837315D01*
X13071637Y-16218593D01*
X13071636Y-16218600D01*
X13013962Y-16607409D01*
X12994675Y-17000000D01*
X12500500Y-17000000D01*
X12500500Y-12624500D01*
X12520185Y-12557461D01*
X12572989Y-12511706D01*
X12624500Y-12500500D01*
X111375500Y-12500500D01*
X111442539Y-12520185D01*
G37*
%TD.AperFunction*%
%TD*%
M02*
