M48
; DRILL file {KiCad 8.0.4} date 2024-09-14T11:07:12+0900
; FORMAT={-:-/ absolute / inch / decimal}
; #@! TF.CreationDate,2024-09-14T11:07:12+09:00
; #@! TF.GenerationSoftware,Kicad,Pcbnew,8.0.4
; #@! TF.FileFunction,Plated,1,2,PTH
FMAT,2
INCH
; #@! TA.AperFunction,Plated,PTH,ComponentDrill
T1C0.0315
; #@! TA.AperFunction,Plated,PTH,ComponentDrill
T2C0.0394
; #@! TA.AperFunction,Plated,PTH,ComponentDrill
T3C0.0630
; #@! TA.AperFunction,Plated,PTH,ComponentDrill
T4C0.0945
; #@! TA.AperFunction,Plated,PTH,ComponentDrill
T5C0.1378
; #@! TA.AperFunction,Plated,PTH,ComponentDrill
T6C0.1772
%
G90
G05
T1
X1.9819Y-3.7205
X2.3819Y-3.7205
T2
X0.5906Y-1.3976
X0.5906Y-1.4976
X0.7087Y-3.2071
X0.7087Y-3.3071
X0.7087Y-3.4071
X1.2598Y-2.5787
X1.2598Y-2.6772
X1.2598Y-3.0906
X1.2598Y-3.189
X1.6929Y-2.5787
X1.6929Y-2.6772
X1.6929Y-3.0906
X1.6929Y-3.189
X2.0669Y-4.1142
X2.126Y-2.5787
X2.126Y-2.6772
X2.126Y-3.0906
X2.126Y-3.189
X2.1669Y-4.1142
X2.2669Y-4.1142
X2.5591Y-2.5787
X2.5591Y-2.6772
X2.5591Y-3.0906
X2.5591Y-3.189
X2.9921Y-2.5787
X2.9921Y-2.6772
X2.9921Y-3.0906
X2.9921Y-3.189
X3.4252Y-2.5787
X3.4252Y-2.6772
X3.4252Y-3.0906
X3.4252Y-3.189
X3.8583Y-2.5787
X3.8583Y-2.6772
X3.8583Y-3.0906
X3.8583Y-3.189
X4.2913Y-2.5787
X4.2913Y-2.6772
X4.2913Y-3.0906
X4.2913Y-3.189
T3
X0.9068Y-1.2093
X0.9068Y-1.7393
X1.0408Y-1.2093
X1.0408Y-1.7393
T4
X1.1811Y-3.7402
X1.1811Y-3.9252
X1.1811Y-4.1102
T5
X0.6693Y-0.6693
X0.6693Y-4.2126
X4.2126Y-0.6693
X4.2126Y-4.2126
T6
X0.7874Y-2.1457
X0.7874Y-2.4291
X1.8123Y-1.3063
X1.8123Y-1.5897
X2.3819Y-1.311
X2.3819Y-1.5945
X2.9331Y-1.311
X2.9331Y-1.5945
X3.4646Y-1.311
X3.4646Y-1.5945
X3.9961Y-1.311
X3.9961Y-1.5945
M30
